<svg id="Layer_1" xmlns="http://www.w3.org/2000/svg" viewBox="0 0 400 300"><style>.st0{fill:#fff}.st1{fill:#21759b}.st2{opacity:.2;fill:#fff;enable-background:new}.st3{fill:#333}.st4{fill:#f0a86e}.st5{fill:#dbe1ef}.st6{fill:#3faee3}.st7{fill:#575859}.st8{fill:#1d1d1b}.st9{fill:#0074a2}.st10{fill:#eee}</style><g id="Layer_1_1_"><path class="st0" d="M369 266.1H12.4c-6.8 0-12.4-5.6-12.4-12.4V18.1C0 11.2 5.6 5.7 12.4 5.7H369c6.8 0 12.4 5.6 12.4 12.4v235.7c0 6.7-5.6 12.3-12.4 12.3z"/><path class="st1" d="M369 5.7H12.4C5.6 5.7 0 11.2 0 18.1v43.4h381.4V18.1c0-6.9-5.6-12.4-12.4-12.4z"/><circle class="st2" cx="27.9" cy="33.6" r="9.3"/><circle class="st2" cx="55.8" cy="33.6" r="9.3"/><circle class="st2" cx="83.7" cy="33.6" r="9.3"/><path class="st3" d="M18.6 80.1h344.2v167.4H18.6z"/><path class="st0" d="M232.1 182.5h158.6V285H232.1z"/><path class="st4" d="M39.1 105.3l.9.6c.3.2.7.2 1.1.2s.8-.1 1-.3c.2-.2.3-.4.3-.7 0-.1 0-.3-.1-.4-.1-.1-.1-.2-.3-.3-.1-.1-.2-.2-.4-.2-.2-.1-.3-.1-.5-.2l-1-.4-.6-.3c-.2-.1-.4-.2-.5-.4-.1-.2-.3-.3-.4-.5-.1-.2-.1-.4-.1-.7s.1-.6.2-.8c.1-.2.3-.5.5-.7.2-.2.5-.3.8-.4s.7-.2 1-.2c.4 0 .9.1 1.3.3s.8.4 1.1.7l-.7.8c-.2-.2-.5-.3-.8-.5-.3-.1-.6-.2-.9-.2-.4 0-.7.1-.9.2-.2.2-.3.4-.3.6 0 .1 0 .3.1.4l.3.3c.1.1.3.1.4.2.2.1.3.1.5.2l1 .4.6.3c.2.1.4.3.5.4.1.2.3.3.3.5.1.2.1.4.1.7 0 .3-.1.6-.2.8-.1.3-.3.5-.5.7-.2.2-.5.4-.9.5-.3.1-.7.2-1.1.2-.5 0-1-.1-1.6-.3-.5-.2-.9-.5-1.3-.8l1.1-.7zm6.7-5.7h4.9v1.1h-3.5v2h3v1.1h-3v2.3h3.6v1.1h-5v-7.6zm7.1 0h1.3v6.4h3.5v1.1h-4.9v-7.5zm6.7 0h4.9v1.1H61v2h3v1.1h-3v2.3h3.6v1.1h-5v-7.6zm6.4 3.8c0-.6.1-1.1.3-1.7.2-.5.4-.9.7-1.2.3-.3.7-.6 1.1-.8.4-.2.9-.3 1.3-.3s.8.1 1.2.3c.4.2.6.4.9.6l-.7.8c-.2-.2-.4-.3-.6-.4s-.5-.2-.8-.2c-.3 0-.6.1-.8.2-.3.1-.5.3-.7.5-.2.2-.3.5-.4.8s-.2.7-.2 1.1 0 .8.2 1.1c.1.3.2.6.4.8.2.2.4.4.7.5.3.1.5.2.9.2.3 0 .6-.1.8-.2.2-.1.5-.3.7-.5l.7.8c-.3.3-.6.6-1 .8-.4.2-.8.3-1.3.3s-.9-.1-1.3-.2c-.4-.2-.8-.4-1.1-.7-.3-.3-.5-.7-.7-1.2-.2-.2-.3-.7-.3-1.4zm9.1-2.7h-2.4v-1.1h6.1v1.1h-2.4v6.4h-1.3v-6.4z"/><path class="st5" d="M88.5 102.5h-1.6v-1l1.6-.1.2-1.6h1.1v1.6h2.6v1h-2.6v2.5c0 .5.1.8.3 1 .2.2.5.3 1 .3.2 0 .5 0 .7-.1.2 0 .4-.1.6-.2l.2.9c-.2.1-.5.2-.8.2-.3.1-.6.1-1 .1s-.8-.1-1.1-.2c-.3-.1-.5-.3-.7-.5-.2-.2-.3-.5-.4-.7-.1-.3-.1-.6-.1-1v-2.2zm5.7-1H98v5.7h-1.3v-4.7h-2.5v-1zm3-1.1c-.3 0-.5-.1-.7-.2-.2-.2-.3-.4-.3-.6s.1-.5.3-.6c.2-.2.4-.2.7-.2.3 0 .5.1.7.2.2.2.3.4.3.6s-.1.5-.3.6c-.2.2-.4.2-.7.2zm5.1 2.1h-1.6v-1l1.6-.1.2-1.6h1.1v1.6h2.6v1h-2.6v2.5c0 .5.1.8.3 1 .2.2.5.3 1 .3.2 0 .5 0 .7-.1.2 0 .4-.1.6-.2l.1 1c-.2.1-.5.2-.8.2-.3.1-.6.1-1 .1s-.8-.1-1.1-.2c-.3-.1-.5-.3-.7-.5-.2-.2-.3-.5-.4-.7v-3.3zm5.6-3.5h3.1v6.2c0 .4.1.6.3.8s.4.2.7.2c.3 0 .6-.1.9-.2l.3 1c-.3.1-.5.2-.7.2-.2.1-.5.1-.8.1-.6 0-1.1-.2-1.6-.6-.3-.4-.5-.9-.5-1.7v-5h-1.8c.1 0 .1-1 .1-1zm6.8 5.4c0-.4.1-.9.2-1.2.2-.4.4-.7.6-.9.3-.3.6-.4.9-.6.3-.1.7-.2 1-.2.4 0 .8.1 1.1.2.3.1.6.3.8.5s.4.5.5.8.2.7.2 1.1v.6h-4.1c.1.5.3.9.6 1.2.3.3.8.4 1.3.4.3 0 .5 0 .8-.1.2-.1.5-.2.8-.3l.4.8c-.3.2-.6.3-1 .5-.4.1-.8.2-1.2.2-.4 0-.8-.1-1.2-.2-.4-.1-.7-.3-1-.6-.3-.2-.5-.5-.6-.9 0-.5-.1-.9-.1-1.3zm4.4-.5c0-.4-.1-.8-.3-1-.2-.2-.6-.4-1-.4-.2 0-.4 0-.5.1-.2.1-.3.1-.5.3l-.4.4c-.1.2-.2.4-.2.6h2.9zm4.1 4.9c.9-.4 1.4-1 1.4-1.8h-.2c-.3 0-.5-.1-.7-.3-.2-.2-.3-.4-.3-.7 0-.3.1-.6.3-.7.2-.2.5-.3.8-.3.4 0 .7.1.9.4.2.3.3.7.3 1.2 0 .7-.2 1.3-.6 1.8-.4.5-.9.8-1.7 1.1l-.2-.7zm12.5-4.4c0-.5.1-.9.3-1.2.2-.4.4-.7.7-.9.3-.2.6-.4 1-.6.4-.1.8-.2 1.2-.2.4 0 .8.1 1.2.2.3.1.6.3.9.5l-.6.8c-.2-.2-.4-.3-.7-.4-.2-.1-.5-.1-.7-.1-.6 0-1 .2-1.3.5-.3.3-.5.8-.5 1.3 0 .3 0 .5.1.8.1.2.2.4.4.6.2.2.4.3.6.4.2.1.5.1.7.1.3 0 .6-.1.9-.2s.5-.3.7-.4l.5.8c-.3.3-.7.5-1.1.6-.4.1-.8.2-1.2.2-.4 0-.8-.1-1.2-.2-.4-.1-.7-.3-1-.6-.3-.2-.5-.5-.6-.9-.2-.3-.3-.7-.3-1.1zm6.7 0c0-.5.1-.9.2-1.2.2-.4.4-.7.6-.9.2-.2.5-.4.9-.6.3-.1.7-.2 1-.2.4 0 .7.1 1 .2.3.1.6.3.9.6s.5.5.6.9c.2.4.2.8.2 1.2 0 .5-.1.9-.2 1.2-.2.4-.4.7-.6.9-.3.2-.5.4-.9.6-.3.1-.7.2-1 .2-.4 0-.7-.1-1-.2-.3-.1-.6-.3-.9-.6-.3-.2-.5-.5-.6-.9-.1-.4-.2-.8-.2-1.2zm1.4 0c0 .6.1 1 .4 1.3s.6.5 1.1.5c.4 0 .8-.2 1.1-.5s.4-.8.4-1.3c0-.6-.1-1-.4-1.3-.3-.3-.6-.5-1.1-.5-.4 0-.8.2-1.1.5-.2.2-.4.6-.4 1.3zm6-2.9h1.1l.1.8c.3-.3.6-.5.9-.7.3-.2.7-.3 1.1-.3.6 0 1.1.2 1.4.6.3.4.4.9.4 1.8v3.5h-1.3v-3.3c0-.4-.1-.8-.2-1-.2-.2-.4-.3-.8-.3-.3 0-.5.1-.7.2-.2.1-.4.3-.7.6v3.9h-1.3v-5.8zm8.1 1h-1.6v-1l1.6-.1.2-1.6h1.1v1.6h2.6v1h-2.6v2.5c0 .5.1.8.3 1 .2.2.5.3 1 .3.2 0 .5 0 .7-.1.2 0 .4-.1.6-.2l.2.9c-.2.1-.5.2-.8.2-.3.1-.6.1-1 .1s-.8-.1-1.1-.2-.5-.3-.7-.5c-.2-.2-.3-.5-.4-.7-.1-.3-.1-.6-.1-1v-2.2zm5.5 1.9c0-.4.1-.9.2-1.2.2-.4.4-.7.6-.9.3-.3.6-.4.9-.6.3-.1.7-.2 1-.2.4 0 .8.1 1.1.2.3.1.6.3.8.5s.4.5.5.8c.1.3.2.7.2 1.1v.6h-4.1c.1.5.3.9.6 1.2.3.3.8.4 1.3.4.3 0 .5 0 .8-.1.2-.1.5-.2.8-.3l.4.8c-.3.2-.6.3-1 .5-.4.1-.8.2-1.2.2-.4 0-.8-.1-1.2-.2-.4-.1-.7-.3-1-.6-.3-.2-.5-.5-.6-.9 0-.5-.1-.9-.1-1.3zm4.4-.5c0-.4-.1-.8-.3-1-.2-.2-.6-.4-1-.4-.2 0-.4 0-.5.1-.2.1-.3.1-.5.3l-.4.4c-.1.2-.2.4-.2.6h2.9zm2.7-2.4h1.1l.1.8c.3-.3.6-.5.9-.7.3-.2.7-.3 1.1-.3.6 0 1.1.2 1.4.6.3.4.4.9.4 1.8v3.5h-1.3v-3.3c0-.4-.1-.8-.2-1-.2-.2-.4-.3-.8-.3-.3 0-.5.1-.7.2-.2.1-.4.3-.7.6v3.9h-1.3v-5.8zm8.3 1h-1.6v-1l1.6-.1.2-1.6h1.1v1.6h2.6v1h-2.6v2.5c0 .5.1.8.3 1 .2.2.5.3 1 .3.2 0 .5 0 .7-.1.2 0 .4-.1.6-.2l.1 1c-.2.1-.5.2-.8.2-.3.1-.6.1-1 .1s-.8-.1-1.1-.2c-.3-.1-.5-.3-.7-.5-.2-.2-.3-.5-.4-.7-.1-.3-.1-.6-.1-1v-2.3h.1zm6.9 6.3c.9-.4 1.4-1 1.4-1.8h-.2c-.3 0-.5-.1-.7-.3-.2-.2-.3-.4-.3-.7 0-.3.1-.6.3-.7.2-.2.5-.3.8-.3.4 0 .7.1.9.4.2.3.3.7.3 1.2 0 .7-.2 1.3-.6 1.8-.4.5-.9.8-1.7 1.1l-.2-.7z"/><path class="st6" d="M198.1 103.4c0-.6.1-1.1.3-1.7.2-.5.4-.9.7-1.2.3-.3.7-.6 1.1-.8.4-.2.9-.3 1.4-.3.4 0 .8.1 1.2.3.4.2.6.4.9.6l-.7.8c-.2-.2-.4-.3-.6-.4s-.5-.2-.8-.2c-.3 0-.6.1-.8.2-.3.1-.5.3-.7.5-.2.2-.3.5-.4.8-.1.3-.2.7-.2 1.1s0 .8.2 1.1c.1.3.2.6.4.8.2.2.4.4.7.5.3.1.5.2.9.2.3 0 .6-.1.8-.2.2-.1.5-.3.7-.5l.7.8c-.3.3-.6.6-1 .8-.4.2-.8.3-1.3.3s-.9-.1-1.3-.2c-.4-.2-.8-.4-1.1-.7-.3-.3-.5-.7-.7-1.2-.3-.2-.4-.7-.4-1.4zm9.8 3.9c-.4 0-.8-.1-1.2-.3-.4-.2-.7-.4-.9-.8-.3-.3-.4-.7-.6-1.2-.1-.5-.2-1-.2-1.7s.1-1.1.2-1.7c.1-.5.3-.9.6-1.2.3-.3.6-.6.9-.7.4-.2.7-.3 1.2-.3.4 0 .8.1 1.2.3.4.2.7.4.9.7.3.3.4.7.6 1.2.1.5.2 1 .2 1.7s-.1 1.1-.2 1.7c-.1.5-.3.9-.6 1.2-.3.3-.6.6-.9.8-.4.3-.8.3-1.2.3zm0-1.2c.2 0 .4-.1.6-.2.2-.1.4-.3.5-.5.1-.2.2-.5.3-.9.1-.3.1-.7.1-1.1 0-.8-.1-1.6-.4-2-.3-.5-.7-.7-1.1-.7-.4 0-.8.2-1.1.7-.3.5-.4 1.1-.4 2 0 .4 0 .8.1 1.1l.3.9c.1.2.3.4.5.5 0 .2.2.2.6.2zm4.3-6.5h1.3v4.8c0 .6.1 1 .3 1.3.2.3.5.4.9.4s.7-.1 1-.4c.2-.3.3-.7.3-1.3v-4.8h1.2v4.7c0 1-.2 1.9-.7 2.3-.4.5-1.1.7-2 .7-.8 0-1.4-.2-2-.7-.5-.5-.7-1.2-.7-2.3v-4.7h.4zm6.9 0h1.3l2.1 4.2.7 1.7c0-.4-.1-.8-.1-1.2 0-.4-.1-.9-.1-1.3v-3.3h1.2v7.5h-1.3l-2.1-4.2-.7-1.6c0 .4.1.8.1 1.2 0 .4.1.8.1 1.3v3.3h-1.2v-7.6zm8.9 1.1h-2.4v-1.1h6.1v1.1h-2.4v6.4H228v-6.4z"/><path class="st5" d="M235 107c-.4-.9-.7-1.9-.7-3s.2-2.1.7-3c.4-.9 1-1.7 1.9-2.3l.7.6c-.7.6-1.2 1.3-1.7 2.2-.3.7-.5 1.6-.5 2.6 0 .9.2 1.8.5 2.6.3.7.8 1.4 1.7 2.2l-.7.6c-.7-.9-1.3-1.7-1.9-2.5zm5.8-3.7l.9-1.7-1.6-.7.2-.7 1.7.4.1-1.8h.7l.1 1.8 1.7-.4.2.7-1.6.7.9 1.7-.6.4-1.1-1.4-1.1 1.4-.5-.4zm6.6 5.3c.7-.6 1.2-1.3 1.7-2.2.3-.7.5-1.6.5-2.6 0-.9-.2-1.8-.5-2.6-.3-.7-.8-1.4-1.7-2.2l.7-.6c.8.6 1.4 1.4 1.9 2.3.4.9.7 1.9.7 3s-.2 2.1-.7 3c-.4.9-1 1.7-1.9 2.3l-.7-.4z"/><path class="st4" d="M261.4 99.6h4.9v1.1h-3.5v2.2h3v1.1h-3v3.2h-1.3v-7.6h-.1zm10.5 7.6l-1.7-3h-1.1v3h-1.3v-7.5h2.5c.4 0 .7 0 1.1.1.3.1.6.2.9.4.2.2.4.4.6.7.1.3.2.6.2 1 0 .6-.1 1-.4 1.4-.3.3-.6.6-1.1.7l1.8 3.2H272zm-2.6-4.1h1c.5 0 .9-.1 1.2-.3.3-.2.4-.5.4-.9s-.1-.7-.4-.9-.7-.2-1.2-.2h-1v2.3zm8 4.2c-.4 0-.8-.1-1.2-.3-.4-.2-.7-.4-.9-.8-.3-.3-.4-.7-.6-1.2-.1-.5-.2-1-.2-1.7s.1-1.1.2-1.7c.1-.5.3-.9.6-1.2.3-.3.6-.6.9-.7.4-.2.7-.3 1.2-.3.4 0 .8.1 1.2.3.4.2.7.4.9.7.3.3.4.7.6 1.2.1.5.2 1 .2 1.7s-.1 1.1-.2 1.7c-.1.5-.3.9-.6 1.2-.3.3-.6.6-.9.8-.4.3-.8.3-1.2.3zm0-1.2c.2 0 .4-.1.6-.2s.4-.3.5-.5c.1-.2.2-.5.3-.9.1-.3.1-.7.1-1.1 0-.8-.1-1.6-.4-2-.3-.5-.7-.7-1.1-.7s-.8.2-1.1.7c-.3.5-.4 1.1-.4 2 0 .4 0 .8.1 1.1l.3.9c.1.2.3.4.5.5.2.2.4.2.6.2zm4.4-6.5h1.3l.9 2.9.3 1.1.3-1.1.9-2.9h1.3v7.5h-1.1v-4.7c0-.3 0-.5.1-.8 0-.2 0-.5.1-.6l-.5 1.9-.8 2.4h-.6l-.8-2.4-.5-1.9c0 .2 0 .4.1.6 0 .2 0 .5.1.8v4.7h-1.1v-7.5z"/><path class="st5" d="M38.6 119.3h1.3v3.1c.2-.2.5-.4.8-.5.3-.1.6-.2.9-.2.4 0 .7.1 1 .2.3.1.5.3.7.6.2.2.3.5.4.9.1.3.2.7.2 1.2s-.1.9-.2 1.3-.3.7-.5.9c-.2.3-.5.4-.8.6-.3.1-.6.2-.9.2-.3 0-.5-.1-.8-.2-.3-.1-.5-.3-.8-.5l-.1.6h-1v-8.4h-.2zm1.3 6.7c.2.2.4.3.6.4.2.1.4.1.6.1.4 0 .7-.2 1-.5.3-.3.4-.8.4-1.4 0-.6-.1-1-.3-1.3s-.5-.5-1-.5c-.2 0-.4.1-.6.2-.2.1-.4.3-.7.5v2.5zm5.5-6.7h3.1v6.2c0 .4.1.6.3.8.2.2.4.2.7.2s.6-.1.9-.2l.3 1c-.3.1-.5.2-.7.2-.2.1-.5.1-.8.1-.6 0-1.1-.2-1.6-.6-.3-.4-.5-.9-.5-1.7v-5.1h-1.8v-.9zm6.7 5.3c0-.5.1-.9.2-1.2.1-.3.4-.7.6-.9.2-.2.5-.4.9-.6.3-.1.7-.2 1-.2.4 0 .7.1 1 .2.3.1.6.3.9.6s.5.5.6.9c.2.4.2.8.2 1.2 0 .5-.1.9-.2 1.2-.2.4-.4.7-.6.9-.3.2-.5.4-.9.6-.3.1-.7.2-1 .2-.4 0-.7-.1-1-.2s-.6-.3-.9-.6c-.3-.2-.5-.5-.6-.9-.1-.3-.2-.8-.2-1.2zm1.4 0c0 .6.1 1 .4 1.3s.6.5 1.1.5c.4 0 .8-.2 1.1-.5.3-.3.4-.8.4-1.3 0-.6-.1-1-.4-1.3-.3-.3-.6-.5-1.1-.5-.4 0-.8.2-1.1.5-.3.3-.4.7-.4 1.3zm5.6 3.8c0-.2.1-.4.2-.6.1-.2.4-.4.7-.5-.1-.1-.3-.2-.4-.3s-.2-.3-.2-.6c0-.2.1-.4.2-.6.1-.2.3-.3.5-.5-.2-.1-.4-.3-.5-.6-.1-.2-.2-.5-.2-.9 0-.3.1-.6.2-.8.1-.2.3-.5.5-.6.2-.2.4-.3.7-.4s.6-.1.9-.1c.3 0 .6 0 .9.1H65v1h-1.3c.1.1.2.2.3.4.1.2.1.3.1.5 0 .3-.1.6-.2.8-.1.2-.3.4-.5.6-.2.2-.4.3-.7.4-.3.1-.6.1-.9.1-.3 0-.6 0-.8-.1-.2.1-.3.3-.3.5 0 .4.3.5 1 .5h1.1c.7 0 1.3.1 1.7.3.4.2.5.6.5 1 0 .3-.1.5-.2.8-.1.2-.4.4-.6.6-.2.2-.6.3-1 .4-.4.1-.8.2-1.3.2-.4 0-.7 0-1-.1s-.6-.2-.8-.3c-.2-.1-.4-.3-.5-.5-.4-.2-.5-.4-.5-.7zm1.2-.2c0 .2.1.4.4.6.3.1.7.2 1.2.2.3 0 .5 0 .7-.1.2 0 .4-.1.6-.2.2-.1.3-.2.4-.3.1-.1.1-.2.1-.3 0-.2-.1-.4-.3-.4-.2-.1-.5-.1-.8-.1h-1.4c-.1 0-.3 0-.4-.1-.2.1-.3.2-.4.4 0 .1-.1.2-.1.3zm1.5-3.4c.3 0 .5-.1.7-.3s.3-.5.3-.8-.1-.6-.3-.8-.5-.3-.7-.3c-.3 0-.5.1-.7.3-.2.2-.3.5-.3.8 0 .4.1.6.3.8.1.2.4.3.7.3zm9.8 3.3v1H66v-1h5.6zm3-.2v1.8h-1.3v-8h1.1l.1.6c.2-.2.5-.4.8-.5s.6-.2.9-.2c.4 0 .7.1 1 .2.3.1.5.3.7.6.2.2.3.5.4.9.1.3.2.7.2 1.2s-.1.9-.2 1.3-.3.7-.5.9c-.2.3-.5.4-.8.6-.3.1-.6.2-.9.2s-.5-.1-.8-.2-.5-.3-.7-.5v1.1zm0-1.9c.2.2.4.3.6.4.2.1.4.1.6.1.4 0 .7-.2 1-.5s.4-.8.4-1.4c0-.6-.1-1-.3-1.3s-.5-.5-1-.5c-.2 0-.4.1-.6.2s-.4.3-.7.5v2.5zm5.3-1.4c0-.5.1-.9.2-1.2.1-.3.4-.7.6-.9.2-.2.5-.4.9-.6.3-.1.7-.2 1-.2s.7.1 1 .2.6.3.9.6c.3.3.5.5.6.9.1.4.2.8.2 1.2 0 .5-.1.9-.2 1.2-.2.4-.4.7-.6.9-.3.2-.5.4-.9.6-.3.1-.7.2-1 .2s-.7-.1-1-.2-.6-.3-.9-.6c-.3-.2-.5-.5-.6-.9-.1-.3-.2-.8-.2-1.2zm1.3 0c0 .6.1 1 .4 1.3s.6.5 1.1.5c.4 0 .8-.2 1.1-.5.3-.3.4-.8.4-1.3 0-.6-.1-1-.4-1.3s-.6-.5-1.1-.5c-.4 0-.8.2-1.1.5-.2.3-.4.7-.4 1.3zm6.3 1.3c.3.2.6.4 1 .5.3.1.7.2 1.1.2s.8-.1 1-.2c.2-.1.3-.3.3-.5s-.1-.4-.4-.5c-.3-.1-.7-.3-1.2-.4-.3-.1-.5-.1-.8-.2-.2-.1-.5-.2-.7-.3-.2-.1-.3-.3-.4-.4-.1-.2-.2-.4-.2-.6 0-.5.2-.9.6-1.2.4-.3 1-.5 1.9-.5.4 0 .9.1 1.3.2s.7.3 1 .5l-.6.8c-.2-.2-.5-.3-.8-.4-.3-.1-.6-.2-.9-.2-.4 0-.7.1-.9.2-.2.1-.3.3-.3.4s0 .2.1.3c.1.1.2.2.3.2.1.1.3.1.5.2s.4.1.6.2l.9.3c.3.1.5.2.7.3.2.1.3.3.4.4.1.2.2.4.2.6 0 .2-.1.5-.2.7-.1.2-.3.4-.5.5-.2.2-.5.3-.8.4s-.7.1-1.1.1c-.5 0-1-.1-1.6-.2-.5-.2-.9-.4-1.2-.6l.7-.8zm7.9-3.1h-1.6v-1l1.6-.1.2-1.6h1.1v1.6h2.6v1h-2.6v2.4c0 .5.1.8.3 1 .2.2.5.3 1 .3.2 0 .5 0 .7-.1.2 0 .4-.1.6-.2l.2.9c-.2.1-.5.2-.8.2-.3.1-.6.1-1 .1s-.8-.1-1.1-.2-.5-.3-.7-.5c-.2-.2-.3-.5-.4-.7-.1-.3-.1-.6-.1-1v-2.1zm6.1 3.1c.3.2.6.4 1 .5.3.1.7.2 1.1.2.4 0 .8-.1 1-.2.2-.1.3-.3.3-.5s-.1-.4-.4-.5-.7-.3-1.2-.4c-.3-.1-.5-.1-.8-.2-.2-.1-.5-.2-.7-.3-.2-.1-.3-.3-.4-.4-.1-.2-.2-.4-.2-.6 0-.5.2-.9.6-1.2.4-.3 1-.5 1.9-.5.4 0 .9.1 1.3.2s.7.3 1 .5l-.6.8c-.2-.2-.5-.3-.8-.4-.3-.1-.6-.2-.9-.2-.4 0-.7.1-.9.2-.2.1-.3.3-.3.4s0 .2.1.3c.1.1.2.2.3.2.1.1.3.1.5.2s.4.1.6.2l.9.3c.3.1.5.2.7.3s.3.3.4.4c.1.2.2.4.2.6 0 .2-.1.5-.2.7-.1.2-.3.4-.5.5-.2.2-.5.3-.8.4s-.7.1-1.1.1c-.5 0-1-.1-1.6-.2-.5-.2-.9-.4-1.2-.6l.7-.8z"/><path class="st4" d="M115.7 125.5c.2.3.4.5.7.7.3.1.5.2.8.2.4 0 .8-.1 1-.4.2-.2.3-.6.3-1.2V121h-3.1v-1.1h4.4v5.1c0 .4 0 .7-.1 1-.1.3-.2.6-.4.8-.2.2-.5.4-.8.5-.3.1-.7.2-1.2.2-.2 0-.4 0-.6-.1-.2 0-.4-.1-.6-.2-.2-.1-.4-.2-.6-.4s-.3-.3-.5-.6l.7-.7zm8.7 2.1c-.4 0-.8-.1-1.2-.3-.4-.2-.7-.4-.9-.8-.3-.3-.4-.7-.6-1.2-.1-.5-.2-1-.2-1.7s.1-1.1.2-1.7c.1-.5.3-.9.6-1.2.3-.3.6-.6.9-.7.4-.2.7-.3 1.2-.3.4 0 .8.1 1.2.3.4.2.7.4.9.7.3.3.4.7.6 1.2.1.5.2 1 .2 1.7s-.1 1.1-.2 1.7c-.1.5-.3.9-.6 1.2-.3.3-.6.6-.9.8-.3.2-.7.3-1.2.3zm0-1.2c.2 0 .4-.1.6-.2.2-.1.4-.3.5-.5.1-.2.2-.5.3-.9.1-.3.1-.7.1-1.1 0-.8-.1-1.6-.4-2-.3-.5-.7-.7-1.1-.7-.5 0-.8.2-1.1.7-.3.5-.4 1.1-.4 2 0 .4 0 .8.1 1.1l.3.9c.1.2.3.4.5.5.2.2.4.2.6.2zm4.5-.1h1.9V121h-1.9v-1.1h5v1.1H132v5.3h1.9v1.1h-5v-1.1zm6.8-6.4h1.3l2.1 4.2.7 1.7c0-.4-.1-.8-.1-1.2 0-.4-.1-.9-.1-1.3V120h1.2v7.5h-1.3l-2.1-4.2-.7-1.6c0 .4.1.8.1 1.2 0 .4.1.8.1 1.3v3.3h-1.2v-7.6z"/><path class="st5" d="M149.6 125.9c0-.3.1-.6.2-.8.1-.2.4-.4.7-.6.3-.2.7-.3 1.2-.4.5-.1 1.1-.2 1.8-.2 0-.3-.1-.6-.3-.8-.2-.2-.5-.3-1-.3-.3 0-.6.1-.9.2-.3.1-.6.3-.9.4l-.5-.9c.3-.2.7-.4 1.2-.5.4-.2.9-.2 1.4-.2.8 0 1.4.2 1.9.6.4.4.6 1 .6 1.9v3.4h-1.1l-.1-.7c-.3.2-.6.4-1 .6-.4.2-.7.2-1.1.2-.3 0-.5 0-.7-.1l-.6-.3c-.2-.1-.3-.3-.4-.5-.3-.5-.4-.7-.4-1zm1.3-.1c0 .2.1.4.3.5.2.1.4.2.7.2.3 0 .5-.1.8-.2.3-.1.5-.3.8-.5v-1.2c-.5 0-.9.1-1.2.2-.3.1-.6.1-.8.2s-.3.2-.4.3c-.2.3-.2.4-.2.5zm10.8 1.6h-1.1l-.1-.9c-.3.3-.5.6-.9.7-.3.2-.7.3-1.1.3-.6 0-1.1-.2-1.4-.6-.3-.4-.4-.9-.4-1.8v-3.5h1.3v3.3c0 .4.1.8.2 1 .2.2.4.3.8.3.3 0 .5-.1.7-.2.2-.1.4-.3.7-.6v-3.8h1.3v5.8zm3.2-4.6h-1.6v-1l1.6-.1.2-1.6h1.1v1.6h2.6v1h-2.6v2.4c0 .5.1.8.3 1 .2.2.5.3 1 .3.2 0 .5 0 .7-.1.2 0 .4-.1.6-.2l.2.9c-.2.1-.5.2-.8.2-.3.1-.6.1-1 .1s-.8-.1-1.1-.2c-.3-.1-.5-.3-.7-.5-.2-.2-.3-.5-.4-.7-.1-.2-.1-.6-.1-1v-2.1zm5.6-3.5h1.3v2.1l-.1 1.2c.3-.3.5-.5.9-.7.3-.2.7-.3 1.1-.3.6 0 1.1.2 1.4.6s.4.9.4 1.8v3.5h-1.3v-3.3c0-.4-.1-.8-.2-1-.2-.2-.4-.3-.8-.3-.3 0-.5.1-.7.2-.2.1-.4.3-.7.6v3.9h-1.3v-8.3zm6.7 5.3c0-.5.1-.9.2-1.2.2-.4.4-.7.6-.9.2-.2.5-.4.9-.6.3-.1.7-.2 1-.2.4 0 .7.1 1 .2s.6.3.9.6c.3.3.5.5.6.9.2.4.2.8.2 1.2 0 .5-.1.9-.2 1.2-.2.4-.4.7-.6.9-.3.2-.5.4-.9.6-.3.1-.7.2-1 .2-.4 0-.7-.1-1-.2s-.6-.3-.9-.6c-.3-.2-.5-.5-.6-.9-.1-.3-.2-.8-.2-1.2zm1.4 0c0 .6.1 1 .4 1.3.3.3.6.5 1.1.5.4 0 .8-.2 1.1-.5.3-.3.4-.8.4-1.3 0-.6-.1-1-.4-1.3s-.6-.5-1.1-.5c-.4 0-.8.2-1.1.5-.3.3-.4.7-.4 1.3zm6.4-2.9h1.1l.1 1.2c.3-.4.6-.8 1-1 .4-.2.8-.4 1.3-.4.2 0 .4 0 .6.1.2 0 .3.1.5.2l-.3 1.1c-.2-.1-.3-.1-.5-.1h-.5c-.4 0-.7.1-1.1.3-.4.2-.7.6-1 1.1v3.1H185v-5.6zm6.8 4.2c.3.2.6.4 1 .5.3.1.7.2 1.1.2.4 0 .8-.1 1-.2s.3-.3.3-.5-.1-.4-.4-.5c-.3-.1-.7-.3-1.2-.4-.3-.1-.5-.1-.8-.2-.2-.1-.5-.2-.7-.3-.2-.1-.3-.3-.4-.4-.1-.2-.2-.4-.2-.6 0-.5.2-.9.6-1.2.4-.3 1-.5 1.9-.5.4 0 .9.1 1.3.2s.7.3 1 .5l-.6.8c-.2-.2-.5-.3-.8-.4-.3-.1-.6-.2-.9-.2-.4 0-.7.1-.9.2-.2.1-.3.3-.3.4s0 .2.1.3c.1.1.2.2.3.2.1.1.3.1.5.2s.4.1.6.2l.9.3c.3.1.5.2.7.3.2.1.3.3.4.4.1.2.2.4.2.6 0 .2-.1.5-.2.7-.1.2-.3.4-.5.5-.2.2-.5.3-.8.4s-.7.1-1.1.1c-.5 0-1-.1-1.6-.2-.5-.2-.9-.4-1.2-.6l.7-.8z"/><path class="st6" d="M207.9 127.6c-.4 0-.8-.1-1.2-.3-.4-.2-.7-.4-.9-.8-.3-.3-.4-.7-.6-1.2-.1-.5-.2-1-.2-1.7s.1-1.1.2-1.7c.1-.5.3-.9.6-1.2.3-.3.6-.6.9-.7.4-.2.7-.3 1.2-.3.4 0 .8.1 1.2.3.4.2.7.4.9.7.3.3.4.7.6 1.2.1.5.2 1 .2 1.7s-.1 1.1-.2 1.7c-.1.5-.3.9-.6 1.2-.3.3-.6.6-.9.8-.4.2-.8.3-1.2.3zm0-1.2c.2 0 .4-.1.6-.2.2-.1.4-.3.5-.5.1-.2.2-.5.3-.9.1-.3.1-.7.1-1.1 0-.8-.1-1.6-.4-2-.3-.5-.7-.7-1.1-.7-.4 0-.8.2-1.1.7-.3.5-.4 1.1-.4 2 0 .4 0 .8.1 1.1l.3.9c.1.2.3.4.5.5 0 .2.2.2.6.2zm4.3-6.5h1.3l2.1 4.2.7 1.7c0-.4-.1-.8-.1-1.2 0-.4-.1-.9-.1-1.3V120h1.2v7.5H216l-2.1-4.2-.7-1.6c0 .4.1.8.1 1.2 0 .4.1.8.1 1.3v3.3h-1.2v-7.6z"/><path class="st5" d="M226 125.9c0-.3.1-.6.2-.8.1-.2.4-.4.7-.6.3-.2.7-.3 1.2-.4s1.1-.2 1.8-.2c0-.3-.1-.6-.3-.8-.2-.2-.5-.3-1-.3-.3 0-.6.1-.9.2s-.6.3-.9.4l-.5-.9c.3-.2.7-.4 1.2-.5.4-.2.9-.2 1.4-.2.8 0 1.4.2 1.9.6.4.4.6 1 .6 1.9v3.4h-1.1l-.1-.7c-.3.2-.6.4-1 .6-.4.2-.7.2-1.1.2-.3 0-.5 0-.7-.1l-.6-.3c-.2-.1-.3-.3-.4-.5-.4-.5-.4-.7-.4-1zm1.3-.1c0 .2.1.4.3.5.2.1.4.2.7.2.3 0 .5-.1.8-.2.3-.1.5-.3.8-.5v-1.2c-.5 0-.9.1-1.2.2-.3.1-.6.1-.8.2-.2.1-.3.2-.4.3-.1.3-.2.4-.2.5zm10.8 1.6H237l-.1-.9c-.3.3-.5.6-.9.7-.3.2-.7.3-1.1.3-.6 0-1.1-.2-1.4-.6-.3-.4-.4-.9-.4-1.8v-3.5h1.3v3.3c0 .4.1.8.2 1 .2.2.4.3.8.3.3 0 .5-.1.7-.2s.4-.3.7-.6v-3.8h1.3v5.8zm3.2-4.6h-1.6v-1l1.6-.1.2-1.6h1.1v1.6h2.6v1h-2.6v2.4c0 .5.1.8.3 1 .2.2.5.3 1 .3.2 0 .5 0 .7-.1.2 0 .4-.1.6-.2l.2.9c-.2.1-.5.2-.8.2-.3.1-.6.1-1 .1s-.8-.1-1.1-.2c-.3-.1-.5-.3-.7-.5-.2-.2-.3-.5-.4-.7-.1-.3-.1-.6-.1-1v-2.1zm5.7-3.5h1.3v2.1l-.1 1.2c.3-.3.5-.5.9-.7.3-.2.7-.3 1.1-.3.6 0 1.1.2 1.4.6s.4.9.4 1.8v3.5h-1.3v-3.3c0-.4-.1-.8-.2-1-.2-.2-.4-.3-.8-.3-.3 0-.5.1-.7.2-.2.1-.4.3-.7.6v3.9H247v-8.3zm6.6 5.3c0-.5.1-.9.2-1.2.2-.4.4-.7.6-.9.3-.2.5-.4.9-.6.3-.1.7-.2 1-.2.4 0 .7.1 1 .2.3.1.6.3.9.6.3.2.5.5.6.9.2.4.2.8.2 1.2 0 .5-.1.9-.2 1.2-.2.4-.4.7-.6.9-.3.2-.5.4-.9.6-.3.1-.7.2-1 .2-.4 0-.7-.1-1-.2-.3-.1-.6-.3-.9-.6-.3-.2-.5-.5-.6-.9-.1-.3-.2-.8-.2-1.2zm1.4 0c0 .6.1 1 .4 1.3s.6.5 1.1.5c.4 0 .8-.2 1.1-.5.3-.3.4-.8.4-1.3 0-.6-.1-1-.4-1.3-.3-.3-.6-.5-1.1-.5-.4 0-.8.2-1.1.5s-.4.7-.4 1.3zm6.5-2.9h1.1l.1 1.2c.3-.4.6-.8 1-1 .4-.2.8-.4 1.3-.4.2 0 .4 0 .6.1.2 0 .3.1.5.2l-.3 1.1c-.2-.1-.3-.1-.5-.1h-.5c-.4 0-.7.1-1.1.3-.4.2-.7.6-1 1.1v3.1h-1.2v-5.6zm6.7 4.2c.3.2.6.4 1 .5s.7.2 1.1.2.8-.1 1-.2.3-.3.3-.5-.1-.4-.4-.5c-.3-.1-.7-.3-1.2-.4-.3-.1-.5-.1-.8-.2-.2-.1-.5-.2-.6-.3-.2-.1-.3-.3-.4-.4-.1-.2-.2-.4-.2-.6 0-.5.2-.9.6-1.2.4-.3 1-.5 1.9-.5.4 0 .9.1 1.3.2s.7.3 1 .5l-.6.8c-.2-.2-.5-.3-.8-.4-.3-.1-.6-.2-.9-.2-.4 0-.7.1-.9.2-.2.1-.3.3-.3.4s0 .2.1.3c.1.1.2.2.3.2.1.1.3.1.5.2s.4.1.6.2l.9.3c.3.1.5.2.7.3.2.1.3.3.4.4.1.2.2.4.2.6 0 .2-.1.5-.2.7-.1.2-.3.4-.5.5-.2.2-.5.3-.8.4s-.7.1-1.1.1c-.5 0-1-.1-1.6-.2-.5-.1-.9-.4-1.2-.6l.6-.8zm8 .5c0-.3.1-.6.3-.8.2-.2.5-.3.8-.3s.6.1.8.3c.2.2.3.5.3.8s-.1.6-.3.8-.5.3-.8.3-.6-.1-.8-.3c-.2-.2-.3-.4-.3-.8zm5.6-4.7h3.8v5.7h-1.3v-4.7h-2.5v-1zm3-.9c-.3 0-.5-.1-.7-.2-.2-.2-.3-.4-.3-.6 0-.2.1-.5.3-.6s.4-.2.7-.2c.3 0 .5.1.7.2.2.2.3.4.3.6 0 .2-.1.5-.3.6-.2.1-.4.2-.7.2zm3.6 3.8c0-.4.1-.9.2-1.2.1-.4.3-.7.5-.9s.5-.4.8-.6c.3-.1.6-.2.9-.2.3 0 .6.1.8.2.2.1.5.3.7.5l-.1-.9v-2.1h1.3v8.2h-1.1l-.1-.6c-.2.2-.5.4-.8.5s-.6.2-.9.2c-.4 0-.7-.1-1-.2-.3-.1-.5-.3-.7-.6-.2-.2-.4-.5-.5-.9v-1.4zm1.3 0c0 .6.1 1.1.3 1.4.2.3.6.5 1 .5.5 0 .9-.2 1.2-.7v-2.6c-.2-.2-.4-.3-.6-.4s-.4-.1-.6-.1c-.2 0-.4 0-.5.1-.2.1-.3.2-.4.4-.1.2-.2.3-.3.6 0 .2-.1.5-.1.8zm12.8-2.6h5.2v.9h-5.2v-.9zm0 2.6h5.2v.9h-5.2v-.9zM38.6 139.5h1.3v3.1c.2-.2.5-.4.8-.5.3-.1.6-.2.9-.2.4 0 .7.1 1 .2.3.1.5.3.7.6.2.2.3.5.4.9.1.3.2.7.2 1.2s-.1.9-.2 1.3-.3.7-.5.9c-.2.3-.5.4-.8.6-.3.1-.6.2-.9.2-.3 0-.5-.1-.8-.2-.3-.1-.5-.3-.8-.5l-.1.6h-1v-8.4h-.2zm1.3 6.7c.2.2.4.3.6.4.2.1.4.1.6.1.4 0 .7-.2 1-.5.3-.3.4-.8.4-1.4 0-.6-.1-1-.3-1.3-.2-.3-.5-.5-1-.5-.2 0-.4.1-.6.2-.2.1-.4.3-.7.5v2.5zm5.5-6.7h3.1v6.2c0 .4.1.6.3.8s.4.2.7.2.6-.1.9-.2l.3 1c-.3.1-.5.2-.7.2-.2.1-.5.1-.8.1-.6 0-1.1-.2-1.6-.6-.3-.4-.5-.9-.5-1.7v-5.1h-1.8v-.9zm6.7 5.4c0-.5.1-.9.2-1.2.2-.4.4-.7.6-.9.2-.2.5-.4.9-.6.3-.1.7-.2 1-.2.4 0 .7.1 1 .2.3.1.6.3.9.6.3.3.5.5.6.9.2.4.2.8.2 1.2 0 .5-.1.9-.2 1.2-.2.4-.4.7-.6.9-.3.2-.5.4-.9.6-.3.1-.7.2-1 .2-.4 0-.7-.1-1-.2-.3-.1-.6-.3-.9-.6-.3-.2-.5-.5-.6-.9-.1-.4-.2-.8-.2-1.2zm1.4 0c0 .6.1 1 .4 1.3.3.3.6.5 1.1.5.4 0 .8-.2 1.1-.5.3-.3.4-.8.4-1.3 0-.6-.1-1-.4-1.3-.3-.3-.6-.5-1.1-.5-.4 0-.8.2-1.1.5-.3.3-.4.7-.4 1.3zm5.6 3.8c0-.2.1-.4.2-.6.1-.2.4-.4.7-.5-.1-.1-.3-.2-.4-.3s-.2-.3-.2-.6c0-.2.1-.4.2-.6.1-.2.3-.3.5-.5-.2-.1-.4-.3-.5-.6-.1-.2-.2-.5-.2-.9 0-.3.1-.6.2-.8.1-.2.3-.5.5-.6.2-.2.4-.3.7-.4.3-.1.6-.1.9-.1.3 0 .6 0 .9.1H65v1h-1.3c.1.1.2.2.3.4.1.2.1.3.1.5 0 .3-.1.6-.2.8-.1.2-.3.4-.5.6-.2.2-.4.3-.7.4-.3.1-.6.1-.9.1-.3 0-.6 0-.8-.1-.2.1-.3.3-.3.5 0 .4.3.5 1 .5h1.1c.7 0 1.3.1 1.7.3.4.2.5.6.5 1 0 .3-.1.5-.2.8-.1.2-.4.4-.6.6-.2.2-.6.3-1 .4-.4.1-.8.2-1.3.2-.4 0-.7 0-1-.1s-.6-.2-.8-.3c-.2-.1-.4-.3-.5-.5-.4-.2-.5-.5-.5-.7zm1.2-.2c0 .2.1.4.4.6.3.1.7.2 1.2.2.3 0 .5 0 .7-.1.2 0 .4-.1.6-.2.2-.1.3-.2.4-.3.1-.1.1-.2.1-.3 0-.2-.1-.4-.3-.4-.2 0-.5-.1-.8-.1h-1.4c-.1 0-.3 0-.4-.1-.2.1-.3.2-.4.4 0 .1-.1.2-.1.3zm1.5-3.4c.3 0 .5-.1.7-.3.2-.2.3-.5.3-.8 0-.3-.1-.6-.3-.8-.2-.2-.5-.3-.7-.3-.3 0-.5.1-.7.3-.2.2-.3.5-.3.8 0 .4.1.6.3.8.1.2.4.3.7.3zm9.8 3.3v1H66v-1h5.6zm3-.2v1.8h-1.3v-8h1.1l.1.6c.2-.2.5-.4.8-.5s.6-.2.9-.2c.4 0 .7.1 1 .2.3.1.5.3.7.6.2.2.3.5.4.9.1.3.2.7.2 1.2s-.1.9-.2 1.3-.3.7-.5.9c-.2.3-.5.4-.8.6-.3.1-.6.2-.9.2s-.5-.1-.8-.2c-.3-.1-.5-.3-.7-.5v1.1zm0-2c.2.2.4.3.6.4.2.1.4.1.6.1.4 0 .7-.2 1-.5.3-.3.4-.8.4-1.4 0-.6-.1-1-.3-1.3-.2-.3-.5-.5-1-.5-.2 0-.4.1-.6.2-.2.1-.4.3-.7.5v2.5zm5.3-1.3c0-.5.1-.9.2-1.2.2-.4.4-.7.6-.9.2-.2.5-.4.9-.6.3-.1.7-.2 1-.2s.7.1 1 .2c.3.1.6.3.9.6.3.3.5.5.6.9.2.4.2.8.2 1.2 0 .5-.1.9-.2 1.2-.1.3-.4.7-.6.9-.3.2-.5.4-.9.6-.3.1-.7.2-1 .2s-.7-.1-1-.2c-.3-.1-.6-.3-.9-.6-.3-.2-.5-.5-.6-.9-.1-.4-.2-.8-.2-1.2zm1.3 0c0 .6.1 1 .4 1.3.3.3.6.5 1.1.5.4 0 .8-.2 1.1-.5.3-.3.4-.8.4-1.3 0-.6-.1-1-.4-1.3-.3-.3-.6-.5-1.1-.5-.4 0-.8.2-1.1.5-.3.3-.4.7-.4 1.3zm6.3 1.2c.3.2.6.4 1 .5.3.1.7.2 1.1.2s.8-.1 1-.2c.2-.1.3-.3.3-.5s-.1-.4-.4-.5c-.3-.1-.7-.3-1.2-.4-.3-.1-.5-.1-.8-.2-.2-.1-.5-.2-.7-.3-.2-.1-.3-.3-.4-.4-.1-.2-.2-.4-.2-.6 0-.5.2-.9.6-1.2.4-.3 1-.5 1.9-.5.4 0 .9.1 1.3.2s.7.3 1 .5l-.6.8c-.2-.2-.5-.3-.8-.4-.3-.1-.6-.2-.9-.2-.4 0-.7.1-.9.2-.2.1-.3.3-.3.4 0 .1 0 .2.1.3.1.1.2.2.3.2.1.1.3.1.5.2s.4.1.6.2l.9.3c.3.1.5.2.7.3.2.1.3.3.4.4.1.2.2.4.2.6s-.1.5-.2.7c-.1.2-.3.4-.5.5-.2.2-.5.3-.8.4-.3.1-.7.1-1.1.1-.5 0-1-.1-1.6-.2-.5-.2-.9-.4-1.2-.6l.7-.8zm7.9-3.1h-1.6v-1l1.6-.1.2-1.6h1.1v1.6h2.6v1h-2.6v2.4c0 .5.1.8.3 1 .2.2.5.3 1 .3.2 0 .5 0 .7-.1.2 0 .4-.1.6-.2l.2.9c-.2.1-.5.2-.8.2-.3.1-.6.1-1 .1s-.8-.1-1.1-.2c-.3-.1-.5-.3-.7-.5-.2-.2-.3-.5-.4-.7-.1-.3-.1-.6-.1-1V143zm6.1 3.1c.3.2.6.4 1 .5.3.1.7.2 1.1.2.4 0 .8-.1 1-.2.2-.1.3-.3.3-.5s-.1-.4-.4-.5-.7-.3-1.2-.4c-.3-.1-.5-.1-.8-.2-.2-.1-.5-.2-.7-.3-.2-.1-.3-.3-.4-.4-.1-.2-.2-.4-.2-.6 0-.5.2-.9.6-1.2.4-.3 1-.5 1.9-.5.4 0 .9.1 1.3.2s.7.3 1 .5l-.6.8c-.2-.2-.5-.3-.8-.4-.3-.1-.6-.2-.9-.2-.4 0-.7.1-.9.2-.2.1-.3.3-.3.4 0 .1 0 .2.1.3s.2.2.3.2c.1.1.3.1.5.2s.4.1.6.2l.9.3c.3.1.5.2.7.3s.3.3.4.4c.1.2.2.4.2.6s-.1.5-.2.7c-.1.2-.3.4-.5.5-.2.2-.5.3-.8.4-.3.1-.7.1-1.1.1-.5 0-1-.1-1.6-.2-.5-.2-.9-.4-1.2-.6l.7-.8zm8 .5c0-.3.1-.6.3-.8.2-.2.5-.3.8-.3s.6.1.8.3.3.5.3.8c0 .3-.1.6-.3.8-.2.2-.5.3-.8.3s-.6-.1-.8-.3c-.2-.1-.3-.3-.3-.8zm5.5-4.6h3.8v5.7h-1.3V143H115v-1zm3-.9c-.3 0-.5-.1-.7-.2-.2-.2-.3-.4-.3-.6s.1-.5.3-.6c.2-.2.4-.2.7-.2.3 0 .5.1.7.2.2.2.3.4.3.6s-.1.5-.3.6c-.1.1-.4.2-.7.2zm3.6 3.8c0-.4.1-.9.2-1.2.1-.4.3-.7.5-.9.2-.2.5-.4.8-.6.3-.1.6-.2.9-.2s.6.1.8.2c.2.1.5.3.7.5l-.1-.9v-2.1h1.3v8.2h-1.1l-.1-.6c-.2.2-.5.4-.8.5s-.6.2-.9.2c-.4 0-.7-.1-1-.2-.3-.1-.5-.3-.7-.6-.2-.2-.4-.5-.5-.9.1-.6 0-1 0-1.4zm1.4 0c0 .6.1 1.1.3 1.4s.6.5 1 .5c.5 0 .9-.2 1.2-.7v-2.6c-.2-.2-.4-.3-.6-.4-.2-.1-.4-.1-.6-.1-.2 0-.4 0-.5.1-.2.1-.3.2-.4.4-.1.2-.2.3-.3.6-.1.2-.1.5-.1.8z"/><path class="st6" d="M135 140.1h1.3l.4 4.3c0 .3 0 .6.1.9 0 .3 0 .6.1.9.1-.3.1-.6.2-.9.1-.3.2-.6.2-.9l.6-2.5h.8l.6 2.5c.1.3.1.6.2.9.1.3.1.6.2.9 0-.3 0-.6.1-.9 0-.3 0-.6.1-.9l.4-4.3h1.2l-1 7.5h-1.4l-.6-2.8c-.1-.2-.1-.5-.1-.7 0-.2-.1-.5-.1-.7 0 .2-.1.4-.1.7 0 .2-.1.5-.1.7l-.6 2.8h-1.4l-1.1-7.5zm7.6 0h1.3v3h2.6v-3h1.3v7.5h-1.3v-3.3H144v3.3h-1.3v-7.5zm7.4 0h4.9v1.1h-3.5v2h3v1.1h-3v2.3h3.6v1.1h-5v-7.6zm10.8 7.6l-1.7-3H158v3h-1.3v-7.5h2.5c.4 0 .7 0 1.1.1.3.1.6.2.9.4.2.2.4.4.6.7.1.3.2.6.2 1 0 .6-.1 1-.4 1.4-.3.3-.6.6-1.1.7l1.8 3.2h-1.4zm-2.8-4.1h1c.5 0 .9-.1 1.2-.3.3-.2.4-.5.4-.9s-.1-.7-.4-.9c-.3-.2-.7-.2-1.2-.2h-1v2.3zm5.9-3.5h4.9v1.1h-3.5v2h3v1.1h-3v2.3h3.6v1.1h-5v-7.6z"/><path class="st5" d="M177.9 146.1c.3.2.6.4 1 .5.3.1.7.2 1.1.2.4 0 .8-.1 1-.2.2-.1.3-.3.3-.5s-.1-.4-.4-.5c-.3-.1-.7-.3-1.2-.4-.3-.1-.5-.1-.8-.2-.2-.1-.5-.2-.7-.3-.2-.1-.3-.3-.4-.4-.1-.2-.2-.4-.2-.6 0-.5.2-.9.6-1.2.4-.3 1-.5 1.9-.5.4 0 .9.1 1.3.2s.7.3 1 .5l-.6.8c-.2-.2-.5-.3-.8-.4-.3-.1-.6-.2-.9-.2-.4 0-.7.1-.9.2-.2.1-.3.3-.3.4 0 .1 0 .2.1.3s.2.2.3.2c.1.1.3.1.5.2s.4.1.6.2l.9.3c.3.1.5.2.7.3.2.1.3.3.4.4.1.2.2.4.2.6s-.1.5-.2.7c-.1.2-.3.4-.5.5-.2.2-.5.3-.8.4-.3.1-.7.1-1.1.1-.5 0-1-.1-1.6-.2-.5-.2-.9-.4-1.2-.6l.7-.8zm7.8-3.1h-1.6v-1l1.6-.1.2-1.6h1.1v1.6h2.6v1H187v2.4c0 .5.1.8.3 1 .2.2.5.3 1 .3.2 0 .5 0 .7-.1.2 0 .4-.1.6-.2l.2.9c-.2.1-.5.2-.8.2-.3.1-.6.1-1 .1s-.8-.1-1.1-.2c-.3-.1-.5-.3-.7-.5-.2-.2-.3-.5-.4-.7-.1-.2-.1-.6-.1-1V143zm5.6 3.2c0-.3.1-.6.2-.8.1-.2.4-.4.7-.6s.7-.3 1.2-.4c.5-.1 1.1-.2 1.8-.2 0-.3-.1-.6-.3-.8-.2-.2-.5-.3-1-.3-.3 0-.6.1-.9.2-.3.1-.6.3-.9.4l-.5-.9c.3-.2.7-.4 1.2-.5.4-.2.9-.2 1.4-.2.8 0 1.4.2 1.9.6.4.4.6 1 .6 1.9v3.4h-1.1l-.1-.7c-.3.2-.6.4-1 .6-.4.2-.7.2-1.1.2-.3 0-.5 0-.7-.1l-.6-.3c-.2-.1-.3-.3-.4-.5-.4-.6-.4-.8-.4-1zm1.3-.2c0 .2.1.4.3.5s.4.2.7.2c.3 0 .5-.1.8-.2.3-.1.5-.3.8-.5v-1.2c-.5 0-.9.1-1.2.2-.3.1-.6.1-.8.2-.2.1-.3.2-.4.3-.1.3-.2.4-.2.5zm7-3H198v-1l1.6-.1.2-1.6h1.1v1.6h2.6v1h-2.6v2.4c0 .5.1.8.3 1 .2.2.5.3 1 .3.2 0 .5 0 .7-.1.2 0 .4-.1.6-.2l.2.9c-.2.1-.5.2-.8.2-.3.1-.6.1-1 .1s-.8-.1-1.1-.2c-.3-.1-.5-.3-.7-.5-.2-.2-.3-.5-.4-.7-.1-.3-.1-.6-.1-1V143zm10.7 4.7h-1.1l-.1-.9c-.3.3-.5.6-.9.7-.3.2-.7.3-1.1.3-.6 0-1.1-.2-1.4-.6-.3-.4-.4-.9-.4-1.8v-3.5h1.3v3.3c0 .4.1.8.2 1 .2.2.4.3.8.3.3 0 .5-.1.7-.2.2-.1.4-.3.7-.6v-3.8h1.3v5.8zm2.3-1.6c.3.2.6.4 1 .5.3.1.7.2 1.1.2.4 0 .8-.1 1-.2.2-.1.3-.3.3-.5s-.1-.4-.4-.5-.7-.3-1.2-.4c-.3-.1-.5-.1-.8-.2-.2-.1-.5-.2-.7-.3-.2-.1-.3-.3-.4-.4-.1-.2-.2-.4-.2-.6 0-.5.2-.9.6-1.2.4-.3 1-.5 1.9-.5.4 0 .9.1 1.3.2s.7.3 1 .5l-.6.8c-.2-.2-.5-.3-.8-.4-.3-.1-.6-.2-.9-.2-.4 0-.7.1-.9.2-.2.1-.3.3-.3.4 0 .1 0 .2.1.3.1.1.2.2.3.2.1.1.3.1.5.2s.4.1.6.2l.9.3c.3.1.5.2.7.3s.3.3.4.4c.1.2.2.4.2.6s-.1.5-.2.7c-.1.2-.3.4-.5.5-.2.2-.5.3-.8.4-.3.1-.7.1-1.1.1-.5 0-1-.1-1.6-.2-.5-.2-.9-.4-1.2-.6l.7-.8zm13.5-3.8h5.2v.9h-5.2v-.9zm0 2.6h5.2v.9h-5.2v-.9zm17.5-4.6c-.4.2-.7.4-.9.7-.2.3-.3.6-.3 1h.2c.3 0 .5.1.7.3.2.2.3.4.3.7 0 .3-.1.6-.3.7-.2.2-.4.3-.7.3-.4 0-.6-.1-.9-.4-.2-.3-.3-.7-.3-1.2 0-.6.2-1.1.5-1.7.3-.5.8-.8 1.3-1.1l.4.7zm4.8 7.9v1.8H247v-8h1.1l.1.6c.2-.2.5-.4.8-.5.3-.1.6-.2.9-.2.4 0 .7.1 1 .2.3.1.5.3.7.6.2.2.3.5.4.9.1.3.2.7.2 1.2s-.1.9-.2 1.3-.3.7-.5.9c-.2.3-.5.4-.8.6-.3.1-.6.2-.9.2-.3 0-.5-.1-.8-.2-.3-.1-.5-.3-.7-.5v1.1zm0-2c.2.2.4.3.6.4.2.1.4.1.6.1.4 0 .7-.2 1-.5.3-.3.4-.8.4-1.4 0-.6-.1-1-.3-1.3-.2-.3-.5-.5-1-.5-.2 0-.4.1-.6.2-.2.1-.4.3-.7.5v2.5zm10.6 1.5h-1.1l-.1-.9c-.3.3-.5.6-.9.7-.3.2-.7.3-1.1.3-.6 0-1.1-.2-1.4-.6-.3-.4-.4-.9-.4-1.8v-3.5h1.3v3.3c0 .4.1.8.2 1 .2.2.4.3.8.3.3 0 .5-.1.7-.2.2-.1.4-.3.7-.6v-3.8h1.3v5.8zm1.9-8.2h1.3v3.1c.2-.2.5-.4.8-.5.3-.1.6-.2.9-.2.4 0 .7.1 1 .2.3.1.5.3.7.6.2.2.3.5.4.9.1.3.2.7.2 1.2s-.1.9-.2 1.3-.3.7-.5.9c-.2.3-.5.4-.8.6-.3.1-.6.2-.9.2-.3 0-.5-.1-.8-.2-.3-.1-.5-.3-.8-.5l-.1.6h-1v-8.4h-.2zm1.3 6.7c.2.2.4.3.6.4.2.1.4.1.6.1.4 0 .7-.2 1-.5.3-.3.4-.8.4-1.4 0-.6-.1-1-.3-1.3-.2-.3-.5-.5-1-.5-.2 0-.4.1-.6.2-.2.1-.4.3-.7.5v2.5zm5.5-6.7h3.1v6.2c0 .4.1.6.3.8.2.2.4.2.7.2.3 0 .6-.1.9-.2l.3 1c-.3.1-.5.2-.7.2s-.5.1-.8.1c-.6 0-1.1-.2-1.6-.6-.3-.4-.5-.9-.5-1.7v-5.1h-1.8v-.9zm7.1 2.5h3.8v5.7h-1.3V143h-2.5v-1zm3-.9c-.3 0-.5-.1-.7-.2-.2-.2-.3-.4-.3-.6s.1-.5.3-.6c.2-.2.4-.2.7-.2.3 0 .5.1.7.2.2.2.3.4.3.6s-.1.5-.3.6c-.2.1-.4.2-.7.2zm4.4 5c.3.2.6.4 1 .5.3.1.7.2 1.1.2s.8-.1 1-.2c.2-.1.3-.3.3-.5s-.1-.4-.4-.5c-.3-.1-.7-.3-1.2-.4-.3-.1-.5-.1-.8-.2-.2-.1-.5-.2-.6-.3-.2-.1-.3-.3-.4-.4-.1-.2-.2-.4-.2-.6 0-.5.2-.9.6-1.2.4-.3 1-.5 1.9-.5.4 0 .9.1 1.3.2s.7.3 1 .5l-.6.8c-.2-.2-.5-.3-.8-.4-.3-.1-.6-.2-.9-.2-.4 0-.7.1-.9.2-.2.1-.3.3-.3.4 0 .1 0 .2.1.3s.2.2.3.2c.1.1.3.1.5.2s.4.1.6.2l.9.3c.3.1.5.2.7.3.2.1.3.3.4.4.1.2.2.4.2.6s-.1.5-.2.7c-.1.2-.3.4-.5.5-.2.2-.5.3-.8.4-.3.1-.7.1-1.1.1-.5 0-1-.1-1.6-.2-.5-.2-.9-.4-1.2-.6l.6-.8zm6.5-6.6h1.3v2.1l-.1 1.2c.3-.3.5-.5.9-.7.3-.2.7-.3 1.1-.3.6 0 1.1.2 1.4.6.3.4.4.9.4 1.8v3.5h-1.3v-3.3c0-.4-.1-.8-.2-1-.1-.2-.4-.3-.8-.3-.3 0-.5.1-.7.2-.2.1-.4.3-.7.6v3.9h-1.3v-8.3zm6.7 5.4c0-.4.1-.9.2-1.2.2-.4.4-.7.6-.9.3-.3.6-.4.9-.6.3-.1.7-.2 1-.2.4 0 .8.1 1.1.2.3.1.6.3.8.5.2.2.4.5.5.8.1.3.2.7.2 1.1v.6h-4.1c.1.5.3.9.6 1.2.3.3.8.4 1.3.4.3 0 .5 0 .8-.1.2-.1.5-.2.8-.3l.4.8c-.3.2-.6.3-1 .5-.4.1-.8.2-1.2.2-.4 0-.8-.1-1.2-.2-.4-.1-.7-.3-1-.6-.3-.2-.5-.5-.6-.9 0-.5-.1-.9-.1-1.3zm4.3-.5c0-.4-.1-.8-.3-1-.2-.2-.6-.4-1-.4-.2 0-.4 0-.5.1-.2.1-.3.2-.5.3l-.4.4c-.1.2-.2.4-.2.6h2.9zm2.5.5c0-.4.1-.9.2-1.2.1-.4.3-.7.5-.9.2-.2.5-.4.8-.6.3-.1.6-.2.9-.2.3 0 .6.1.8.2.2.1.5.3.7.5l-.1-.9v-2.1h1.3v8.2h-1.1l-.1-.6c-.2.2-.5.4-.8.5s-.6.2-.9.2c-.4 0-.7-.1-1-.2-.3-.1-.5-.3-.7-.6-.2-.2-.4-.5-.5-.9.1-.6 0-1 0-1.4zm1.5 0c0 .6.1 1.1.3 1.4.2.3.6.5 1 .5.5 0 .9-.2 1.2-.7v-2.6c-.2-.2-.4-.3-.6-.4-.2-.1-.4-.1-.6-.1-.2 0-.4 0-.5.1s-.3.2-.4.4-.2.3-.3.6c-.1.2-.1.5-.1.8zm7.3-1.7c.4-.2.7-.4.9-.7.2-.3.3-.6.4-1h-.3c-.3 0-.5-.1-.6-.3-.2-.2-.3-.4-.3-.7 0-.3.1-.6.3-.7.2-.2.4-.3.7-.3.4 0 .6.1.9.4.2.3.3.7.3 1.2 0 .6-.2 1.1-.5 1.7-.3.5-.7.8-1.3 1.1l-.5-.7z"/><path class="st4" d="M327.2 145.6h-2.5l-.6 2.1h-1.3l2.5-7.5h1.6l2.5 7.5H328l-.8-2.1zm-.3-1l-.3-.9-.3-1.2-.3-1.2-.3 1.2-.3 1.2-.3.9h1.8zm3.4-4.5h1.3l2.1 4.2.7 1.7c0-.4-.1-.8-.1-1.2 0-.4-.1-.9-.1-1.3v-3.3h1.2v7.5h-1.3l-2.1-4.2-.7-1.6c0 .4.1.8.1 1.2 0 .4.1.8.1 1.3v3.3h-1.2v-7.6zm7 0h2c1.1 0 2 .3 2.6.9.6.6.9 1.6.9 2.8 0 .6-.1 1.1-.2 1.7-.2.5-.4.9-.7 1.2-.3.3-.6.5-1.1.7-.4.2-.9.2-1.4.2h-2.1v-7.5zm1.8 6.5c.7 0 1.2-.2 1.7-.6.4-.4.6-1.1.6-2.1 0-.9-.2-1.6-.6-2.1-.4-.4-.9-.6-1.7-.6h-.5v5.4h.5z"/><path class="st5" d="M38.2 165.1c0-.4.1-.9.2-1.2.1-.4.3-.7.5-.9.2-.2.5-.4.8-.6.3-.2.6-.2.9-.2s.6.1.8.2.5.3.7.5l-.1-.9v-2.1h1.3v8.2h-1.1l-.1-.6c-.2.2-.5.4-.8.5-.3.1-.6.2-.9.2-.4 0-.7-.1-1-.2-.3-.1-.5-.3-.7-.6-.2-.2-.4-.5-.5-.9v-1.4zm1.4 0c0 .6.1 1.1.3 1.4.2.3.6.5 1 .5.5 0 .9-.2 1.2-.7v-2.6c-.2-.2-.4-.3-.6-.4-.2-.1-.4-.1-.6-.1-.2 0-.4 0-.5.1-.2.1-.3.2-.4.4-.1.2-.2.3-.3.6-.1.4-.1.5-.1.8zm5.8 1.4c0-.3.1-.6.2-.8.1-.2.4-.4.7-.6.3-.2.7-.3 1.2-.4.5-.1 1.1-.2 1.8-.2 0-.3-.1-.6-.3-.8-.2-.2-.5-.3-1-.3-.3 0-.6.1-.9.2-.3.1-.6.3-.9.4l-.5-.9c.3-.2.7-.4 1.2-.5.4-.2.9-.2 1.4-.2.8 0 1.4.2 1.9.6s.6 1 .6 1.9v3.4h-1.1l-.1-.7c-.3.2-.6.4-1 .6-.4.2-.7.2-1.1.2-.3 0-.5 0-.7-.1l-.6-.3c-.2-.1-.3-.3-.4-.5-.4-.6-.4-.8-.4-1zm1.2-.1c0 .2.1.4.3.5.2.1.4.2.7.2.3 0 .5-.1.8-.2.3-.1.5-.3.8-.5v-1.2c-.5 0-.9.1-1.2.2-.3.1-.6.1-.8.2-.2.1-.3.2-.4.3-.1.2-.2.3-.2.5zm7.1-3h-1.6v-1l1.6-.1.2-1.6H55v1.6h2.6v1H55v2.4c0 .5.1.8.3 1 .2.2.5.3 1 .3.2 0 .5 0 .7-.1.2 0 .4-.1.6-.2l.2.9c-.2.1-.5.2-.8.2-.3.1-.6.1-1 .1s-.8-.1-1.1-.2c-.3-.1-.5-.3-.7-.5-.2-.2-.3-.5-.4-.7-.1-.2-.1-.6-.1-1v-2.1zm5.4 1.7c0-.4.1-.9.2-1.2.2-.4.4-.7.6-.9.3-.3.6-.4.9-.6.3-.1.7-.2 1-.2.4 0 .8.1 1.1.2s.6.3.8.5c.2.2.4.5.5.8.1.3.2.7.2 1.1v.6h-4.1c.1.5.3.9.6 1.2.3.3.8.4 1.3.4.3 0 .5 0 .8-.1.2-.1.5-.2.8-.3l.4.8c-.3.2-.6.3-1 .5-.4.1-.8.2-1.2.2-.4 0-.8-.1-1.2-.2-.4-.1-.7-.3-1-.6-.3-.2-.5-.5-.6-.9s-.1-.8-.1-1.3zm4.4-.5c0-.4-.1-.8-.3-1-.2-.2-.6-.4-1-.4-.2 0-.4 0-.5.1-.2.1-.3.2-.5.3l-.4.4c-.1.2-.2.4-.2.6h2.9zm10.2-.7l4.4-2.9v1.2l-3.3 2.2 3.3 2.2v1.2l-4.4-2.9v-1zm6.5-1.3h5.2v.9h-5.2v-.9zm0 2.5h5.2v.9h-5.2v-.9z"/><path class="st6" d="M93.9 164.2c0-.6.1-1.1.3-1.7s.4-.9.7-1.2c.3-.3.7-.6 1.1-.8s.9-.3 1.3-.3.8.1 1.2.3c.4.2.6.4.9.6l-.7.8c-.2-.2-.4-.3-.6-.4-.2-.1-.5-.2-.8-.2-.3 0-.6.1-.8.2-.3.1-.5.3-.7.5-.2.2-.3.5-.4.8-.1.3-.2.7-.2 1.1 0 .4 0 .8.2 1.1.1.3.2.6.4.8.2.2.4.4.7.5.3.1.5.2.9.2.3 0 .6-.1.8-.2.2-.1.5-.3.7-.5l.7.8c-.3.3-.6.6-1 .8-.4.2-.8.3-1.3.3s-.9-.1-1.3-.2c-.4-.2-.8-.4-1.1-.7-.3-.3-.5-.7-.7-1.2-.2-.3-.3-.8-.3-1.4zm7.1-3.8h1.3v4.8c0 .6.1 1 .3 1.3.2.3.5.4.9.4s.7-.1 1-.4c.2-.3.3-.7.3-1.3v-4.8h1.2v4.7c0 1-.2 1.9-.7 2.3-.4.5-1.1.7-2 .7-.8 0-1.4-.2-2-.7-.5-.5-.7-1.2-.7-2.3v-4.7h.4zm11.1 7.5l-1.7-3h-1.1v3H108v-7.5h2.5c.4 0 .7 0 1.1.1.3.1.6.2.9.4.2.2.4.4.6.7.2.3.2.6.2 1 0 .6-.1 1-.4 1.4-.3.3-.6.6-1.1.7l1.8 3.2h-1.4zm-2.7-4h1c.5 0 .9-.1 1.2-.3.3-.2.4-.5.4-.9s-.1-.7-.4-.9c-.3-.2-.7-.2-1.2-.2h-1v2.3zm5.5-3.5h2c1.1 0 2 .3 2.6.9.6.6.9 1.6.9 2.8 0 .6-.1 1.1-.2 1.7-.2.5-.4.9-.7 1.2-.3.3-.6.5-1.1.7-.4.2-.9.2-1.4.2h-2.1v-7.5zm1.9 6.5c.7 0 1.2-.2 1.7-.6.4-.4.6-1.1.6-2.1s-.2-1.6-.6-2.1c-.4-.4-.9-.6-1.7-.6h-.5v5.4h.5zm8.9-.9h-2.5l-.6 2.1h-1.3l2.5-7.5h1.6l2.5 7.5h-1.4l-.8-2.1zm-.3-1.2l-.3-.9-.3-1.2-.3-1.2-.3 1.2-.3 1.2-.3.9h1.8zm5.3-3.3h-2.4v-1.1h6.1v1.1H132v6.4h-1.3v-6.4zm5.4-1.1h4.9v1.1h-3.5v2h3v1.1h-3v2.3h3.6v1.1h-5v-7.6z"/><path class="st5" d="M144.7 167.7c-.4-.9-.7-1.9-.7-3s.2-2.1.7-3c.4-.9 1-1.7 1.9-2.3l.7.6c-.7.6-1.2 1.3-1.7 2.2-.3.7-.5 1.6-.5 2.6 0 .9.2 1.8.5 2.6.3.7.8 1.4 1.7 2.2l-.7.6c-.8-.8-1.4-1.5-1.9-2.5zm5.5 1.7c.7-.6 1.2-1.3 1.7-2.2.4-.8.5-1.6.5-2.6 0-.9-.2-1.8-.5-2.6-.3-.7-.8-1.4-1.7-2.2l.7-.6c.8.6 1.4 1.4 1.9 2.3.4.9.7 1.9.7 3s-.2 2.1-.7 3c-.4.9-1 1.7-1.9 2.3l-.7-.4z"/><path class="st7" d="M227.9 178.6h166.9v110.6H227.9z"/><path class="st0" d="M389.7 183.7V284H233.1V183.7h156.6m10.3-10.3H222.7v120.9H400V173.4z"/><path class="st8" d="M390.7 183.4H233.2v101.3H255v-94.3h135.7z"/><path class="st9" d="M233.2 196.8h23.3v6h-23.3z"/><path class="st10" d="M254.8 190.3v6.4l-3.1 3.1 3.1 3v81.9h135.7v-94.4z"/><path class="st1" d="M290 236.1c0 12.6 7.3 23.6 18 28.7L292.8 223c-1.8 4.2-2.8 8.5-2.8 13.1zm53.5-1.6c0-3.9-1.4-6.7-2.6-8.8-1.7-2.6-3.1-4.9-3.1-7.4 0-2.9 2.3-5.7 5.4-5.7h.4c-5.7-5.2-13.2-8.4-21.6-8.4-11.2 0-21 5.7-26.7 14.4h2.1c3.3 0 8.5-.4 8.5-.4 1.8-.1 2 2.4.2 2.6 0 0-1.8.2-3.6.3l11.6 34.6 7-21-5-13.6c-1.8-.1-3.3-.3-3.3-.3-1.8-.1-1.6-2.7.2-2.6 0 0 5.3.4 8.4.4 3.3 0 8.5-.4 8.5-.4 1.8-.1 2 2.4.2 2.6 0 0-1.8.2-3.6.3l11.6 34.3 3.2-10.6c1.1-4.3 2.2-7.5 2.2-10.3z"/><path class="st1" d="M322.5 238.9l-9.6 27.8c2.9.8 5.9 1.3 9 1.3 3.7 0 7.2-.6 10.6-1.9-.1-.1-.2-.3-.2-.4l-9.8-26.8zm27.4-18c.1 1 .2 2.1.2 3.3 0 3.2-.6 6.9-2.4 11.5l-9.7 28.2c9.5-5.6 15.9-15.8 15.9-27.6-.1-5.7-1.5-10.9-4-15.4z"/><path class="st1" d="M321.9 198.9c-20.6 0-37.2 16.6-37.2 37.2s16.6 37.2 37.2 37.2 37.2-16.6 37.2-37.2-16.7-37.2-37.2-37.2zm0 72.7c-19.5 0-35.5-15.9-35.5-35.6 0-19.5 15.9-35.5 35.5-35.5 19.5 0 35.5 15.9 35.5 35.5 0 19.7-15.9 35.6-35.5 35.6z"/></g><path class="st0" d="M235.1 185.9h10.5v2.3h-10.5zm0 6.4h14.8v2.3h-14.8zm0 6.5h14.8v2.3h-14.8zm0 6.4h14.8v2.3h-14.8zm0 6.5h14.8v2.3h-14.8zm0 6.4h14.8v2.3h-14.8zm0 6.4h14.8v2.3h-14.8zm0 6.4h14.8v2.3h-14.8zm0 6.4h14.8v2.3h-14.8zm0 6.4h14.8v2.3h-14.8zm0 6.4h14.8v2.3h-14.8zm0 6.4h14.8v2.3h-14.8zm0 6.5h14.8v2.3h-14.8zm0 12.8h10.5v2.3h-10.5zm0-6.8h14.8v2.3h-14.8z" id="Layer_2"/></svg>