<svg xmlns="http://www.w3.org/2000/svg" viewBox="0 0 400 300"><path fill="#CCC" d="M193.5 247.4h77.6v32.3h-77.6z"/><path opacity=".1" d="M193.5 252.4h77.6v27.1h-77.6z"/><path fill="#CCC" d="M284.7 299.7H180.2c-4.3 0-6.4-6-3.3-9.4l16.7-11.5h77.6l16.8 11.5c3.1 3.5 1 9.4-3.3 9.4z"/><path fill="#E2E2E2" d="M175.4 293.5c-.5 3.1 1.5 6.5 4.7 6.5h104.5c3.2 0 5.2-3.3 4.7-6.5H175.4z"/><path fill="#575859" d="M400 217.1V11c0-6.4-5-11-11.1-11H75.8c-6.1 0-11.1 4.5-11.1 11v206.1H400z"/><path fill="#E2E2E2" d="M64.7 217.1v24.4c0 6.3 5 10.9 11.1 10.9h313.1c6.1 0 11.1-4.6 11.1-10.9v-24.4H64.7z"/><path fill="#C6C6C6" d="M77.9 14.1h308.8v188.8H77.9z"/><circle fill="#575859" cx="232.4" cy="234.7" r="7.9"/><circle opacity=".12" fill="#FFF" cx="232.4" cy="234.7" r="7.9"/><path opacity=".1" d="M193.5 252.4h77.6v6.2h-77.6z"/><path opacity=".3" fill="#FFF" d="M174.7 202.9h212.1V14.1h-87z"/><path d="M282.5 90H373v81h-90.5zm-98.8 0h90.5v81h-90.5zM85 90h90.5v81H85z" fill="#517ECE"/><path fill="#575859" d="M394.4 300h-87.8c-3.1 0-5.6-2.5-5.6-5.6V162.6c0-3.1 2.5-5.6 5.6-5.6h87.8c3.1 0 5.6 2.5 5.6 5.6v131.8c0 3.1-2.5 5.6-5.6 5.6z"/><circle fill="#444" cx="350.5" cy="293.6" r="3.4"/><circle fill="#444" cx="350.9" cy="162.6" r="1.7"/><path fill="#C6C6C6" d="M388.5 288h-76.1c-.9 0-1.6-.7-1.6-1.6V172.1c0-.9.7-1.6 1.6-1.6h76.1c.9 0 1.6.7 1.6 1.6v114.3c0 .9-.7 1.6-1.6 1.6z"/><path opacity=".3" fill="#FFF" d="M388.5 170.5h-14.9L310.9 270v16.4c0 .9.7 1.6 1.6 1.6h76.1c.9 0 1.6-.7 1.6-1.6V172.1c-.1-.9-.8-1.6-1.7-1.6z"/><path fill="#FFF" d="M193 27h180v18H193zM85 54h288v27H85z"/><path fill="#36A882" d="M85 27h99v18H85z"/><path fill="#E2E2E2" d="M0 288v6.7c0 1.5 6.9 5.3 12.8 5.3h235.4c5.9 0 12.8-3.8 12.8-5.3V288H0z"/><path fill="#B7B7B7" d="M94.7 288l4.5 4c.9.8 2.1 1.2 3.4 1.2h45.8c1.3 0 2.5-.4 3.4-1.2l4.5-4H94.7z"/><path fill="#575859" d="M244.4 288H16.6c-4.2 0-7.6-3.4-7.6-7.6V142.6c0-4.2 3.4-7.6 7.6-7.6h227.9c4.2 0 7.6 3.4 7.6 7.6v137.9c-.1 4.1-3.5 7.5-7.7 7.5z"/><path fill="#C6C6C6" d="M237.1 273H23.9c-1.2 0-2.1-1.1-2.1-2.4V152.2c0-1.3 1-2.4 2.1-2.4h213.2c1.2 0 2.1 1.1 2.1 2.4v118.4c0 1.3-.9 2.4-2.1 2.4z"/><path opacity=".3" fill="#FFF" d="M70.9 272.9h166.2c1.2 0 2.1-1.1 2.1-2.4V152.2c0-1.3-1-2.4-2.1-2.4h-95.3L70.9 272.9z"/><path d="M165.6 205.6H225v56h-59.4zm-64.8 0h59.4v56h-59.4zm-64.8 0h59.4v56H36z" fill="#517ECE"/><path fill="#FFF" d="M106.9 162.1H225v12.4H106.9zM36 180.7h189v18.7H36z"/><path fill="#36A882" d="M36 162.1h65v12.4H36zm282.6 14.5h65V189h-65z"/><path fill="#FFF" d="M318.6 193.6h65V206h-65z"/><path d="M318.6 250.9h65v30.4h-65zm0-38.9h65v30.4h-65z" fill="#517ECE"/><path fill="#575859" d="M249.5 215h-31.9c-3.6 0-6.6 3.1-6.6 7v71c0 3.9 3 7 6.6 7h31.8c3.6 0 6.6-3.1 6.6-7v-71.2c0-3.7-2.9-6.8-6.5-6.8z"/><path fill="#C6C6C6" d="M214.8 226.1h37.5v62.6h-37.5z"/><path opacity=".3" fill="#FFF" d="M252.3 226.1h-8.1l-29.4 47.7v14.8h37.5z"/><circle fill="#444" cx="233.5" cy="294.2" r="2.8"/><path fill="#444" d="M237.4 220.9h-7.8c-.2 0-.4-.2-.4-.4v-.7c0-.2.2-.4.4-.4h7.8c.2 0 .4.2.4.4v.7c.1.2-.1.4-.4.4z"/><path fill="#36A882" d="M219 230.2h29.8v5.7H219z"/><path fill="#FFF" d="M219 238.5h29.8v5.7H219z"/><path fill="#517ECE" d="M219 248.3h29.8v35.2H219z"/></svg>