<svg id="Layer_1" xmlns="http://www.w3.org/2000/svg" viewBox="0 0 400 230.1"><style>.st0{fill:#575859}.st1{fill:#f6f6f6}.st2{fill:#a3a3a3}.st3{fill:#ededed}.st4{fill:#36a882}.st5{fill:#517ece}.st6{fill:#e57ad6}.st7{fill:#ccc}.st8{fill:#b7b7b7}</style><path class="st0" d="M379 210.1H21.1c-6.1 0-11.1-5-11.1-11.1V11.1C10 5 15 0 21.1 0H379c6.1 0 11.1 5 11.1 11.1v187.8c0 6.2-5 11.2-11.1 11.2z"/><path class="st1" d="M33.3 191.3c-2.8 0-5-2.2-5-5V23.8c0-2.8 2.2-5 5-5h333.4c2.8 0 5 2.2 5 5v162.5c0 2.8-2.2 5-5 5H33.3z"/><path class="st2" d="M366.8 20.5c1.8 0 3.3 1.4 3.3 3.3v162.5c0 1.8-1.6 3.3-3.3 3.3H33.3c-1.9 0-3.3-1.4-3.3-3.3V23.8c0-1.8 1.4-3.3 3.3-3.3h333.5m0-3.4H33.3c-3.7 0-6.7 3-6.7 6.7v162.5c0 3.7 3 6.7 6.7 6.7h333.4c3.7 0 6.7-3 6.7-6.7V23.8c0-3.7-3-6.7-6.6-6.7z"/><path class="st3" d="M230.1 20.3H33.3c-1.9 0-3.3 1.4-3.3 3.3v162.5c0 1.8 1.4 3.3 3.3 3.3h137.6l59.2-169.1z"/><path class="st4" d="M126.7 90c-20 0-40 20-40 20s20 20 40 20 40-20 40-20-20-20-40-20zm0 30c-5.6 0-10-4.4-10-10s4.4-10 10-10 10 4.4 10 10-4.4 10-10 10z"/><g id="XMLID_2_"><g id="XMLID_3_"><circle id="XMLID_13_" class="st5" cx="216.1" cy="75.9" r="5.9"/></g><g id="XMLID_10_"><path id="XMLID_12_" class="st5" d="M202.6 120.5l4.7 4.7c-3.2 3-7.6 4.9-12.3 4.9-10.1 0-18.2-8.2-18.2-18.2 0-4.8 1.9-9.1 4.9-12.3l4.7 4.7c-1.8 2-2.9 4.7-2.9 7.7 0 6.4 5.2 11.6 11.6 11.6 2.8-.2 5.5-1.3 7.5-3.1z"/></g><g id="XMLID_11_"><path id="XMLID_9_" class="st5" d="M223.5 99.2c-.4 6.4-.9 13-1.3 19.4 0 .2-.1.4-.2.8-.3.9-1 1.4-1.2 1.7-.2.2-1 .8-2.1.8s-1.9-.6-2.2-.8c-.7-.6-1-1.2-1.1-1.3-.2-.4-.2-.8-.2-1 .3-5 .7-10.1 1.1-15.1-1.7 0-3.3.1-4.9.1 1.2 2.4 1.9 5.2 1.9 8.2 0 4.3-1.6 8.3-4 11.4l-4.8-4.8c1.3-1.9 2.1-4.2 2.1-6.7 0-6.4-5.2-11.6-11.6-11.6-2.4 0-4.8.8-6.7 2.1l-4.8-4.8c2.4-2 5.3-3.3 8.6-3.8 2.9-3.3 5.8-6.7 8.7-10-1.6-1-3.2-1.9-4.8-2.9-2.1 1.9-4.3 3.8-6.4 5.8-.2.1-.6.3-1 .4-.3.1-1.1.3-2.1.1-1.1-.3-1.8-1.1-1.9-1.3-.2-.2-.7-1-.7-2 0-.8.2-1.4.3-1.7.2-.6.6-.9.8-1.1 2.8-2.6 5.6-5 8.3-7.6.2-.2.6-.4 1-.6.2-.1.8-.2 1.4-.1.4.1.8.2 1 .3 5.7 3.2 11.2 6.4 16.9 9.7.2.2.7.4 1 .9.2.3.7.9.8 1.9 0 .3.2 1.2-.2 2.2-.2.4-.4.7-.6.8-.8.9-3.3 4-6.9 8.2 4.1-.1 8.2-.3 12.3-.4h.9c.3.1 1.1.2 1.8.8.4.4.7 1 .8 1.2v.8z"/></g></g><path class="st0" d="M72 116.6c1.4.6 1.8 1.6 1.8 2.6 0 2.1-1.1 3.1-2.4 3.1-.4 0-1 0-2.6-.7L49 112.5c-1-.4-1.9-1.3-1.9-2.9 0-1.6.8-2.4 1.9-2.9l19.9-9c1.4-.7 2-.8 2.6-.8 1.2 0 2.4 1 2.4 3.1 0 1-.4 2-1.8 2.6l-16.7 7 16.6 7zm248.2-24.8c.4-1.1 1.2-1.9 2.8-1.9 1.7 0 3 1.2 3 2.8 0 .1-.1.7-.4 1.4l-13.3 30.8c-.4 1.1-1.2 1.9-2.8 1.9-1.7 0-3-1.2-3-2.8 0-.1.1-.7.4-1.4l13.3-30.8zm26.3 18.3l-16.7-7c-1.4-.6-1.8-1.6-1.8-2.6 0-2.1 1.1-3.1 2.4-3.1.4 0 1 0 2.6.8l19.8 9c1 .4 1.9 1.3 1.9 2.9 0 1.6-.8 2.4-1.9 2.9l-19.8 9.1c-1.4.7-2 .7-2.6.7-1.2 0-2.4-1-2.4-3.1 0-1 .4-2 1.8-2.6l16.7-7z"/><path class="st6" d="M297.7 115.3c0-2.7-1-5.1-2.7-7 0-.3.1-.6.1-.9 0-4-3.1-7.2-7-7.3-.2-3.7-3.2-6.6-7-6.6-1 0-2 .2-2.9.6-1.2-3.4-4.6-5.9-8.3-5.9-1.8 0-3.3.6-4.7 1.3-1.2-.9-2.7-1.3-4.2-1.3-3.6 0-6.6 2.6-7 6-.9-.4-1.9-.7-2.9-.7-3.6 0-6.4 2.9-6.4 6.4 0 .3 0 .7.1 1-.2 0-.6-.1-.8-.1-3.4 0-6.2 2.8-6.2 6.2 0 1.1.3 2.2.8 3.1-1.4.9-2.4 2.6-2.4 4.4 0 2.9 2.3 5.3 5.3 5.3h.1c.8 2.7 3.2 4.7 6.1 4.7 1.3 0 2.7-.4 3.7-1.2 1 .8 2.3 1.2 3.7 1.2 2.1 0 4-1.1 5.2-2.7 2.1 2.2 5.1 3.6 8.4 3.6 1.6 0 3-.3 4.2-.8.4.1 2.3.9 4.1 5.6 2 5.3 2 9 5.3 8.3 3.7-.8-1-6.8 1.6-10.4 1.3-1.9 2.6-2.4 3.2-2.6h.7c5.5 0 9.9-4.7 9.9-10.2z"/><path id="bottom_part_5_" class="st7" d="M0 210.4v11c0 2.4 10.6 8.7 19.6 8.7h360.9c9.1 0 19.6-6.3 19.6-8.7v-11H0z"/><path id="touchpad" class="st8" d="M152.8 210.4l7 6.7c1.3 1.2 3.2 2 5.1 2h70.2c2 0 3.8-.8 5.1-2l7-6.7h-94.4z"/></svg>