<svg id="Layer_1" xmlns="http://www.w3.org/2000/svg" viewBox="0 0 400 276"><style>.st0{fill:#fff}.st1{fill:#ff8e1d}.st2{opacity:.2;fill:#fff;enable-background:new}.st3{fill:#517ece}.st4{opacity:.5;fill:#336;enable-background:new}.st5{fill:none;stroke:#fff;stroke-width:10;stroke-miterlimit:10}.st6{fill:url(#SVGID_1_)}.st7{fill:#e5e5e5}.st8{fill:#36a882}.st9{fill:#666}</style><g id="Layer_1_1_"><path class="st0" d="M377.3 276H12.7c-7 0-12.7-5.7-12.7-12.7v-241c0-7 5.7-12.7 12.7-12.7h364.6c7 0 12.7 5.7 12.7 12.7v241.1c0 6.9-5.7 12.6-12.7 12.6z"/><path class="st1" d="M377.3 9.7H12.7C5.7 9.7 0 15.4 0 22.4v44.4h390V22.4c0-7-5.7-12.7-12.7-12.7z"/><circle class="st2" cx="28.5" cy="38.3" r="9.5"/><circle class="st2" cx="57.1" cy="38.3" r="9.5"/><circle class="st2" cx="85.6" cy="38.3" r="9.5"/><path class="st3" d="M19 85.8h351.9V257H19z"/><path class="st4" d="M370.9 257H19v-18.7l38-21.5 20.9 12 26.6-37.5 20.6 6 36.6-9.1 9.5 9.5 13-21.7c18.1-8.8 32-24 32-24l31.1 26.6 28.5-19 19 9.5 30-18.7 46.1-9.8V257z"/><path class="st5" d="M9.5 245.4l47.6-28.5 19 9.5 28.5-38.1 19 9.5 38.1-9.5 9.5 9.5 9.5-19 38.1-28.5 28.5 28.5 28.5-19 19 9.5 28.6-19 57-9.5"/></g><g id="Layer_4"><linearGradient id="SVGID_1_" gradientUnits="userSpaceOnUse" x1="109.511" y1="17.04" x2="385.601" y2="293.13" gradientTransform="matrix(1 0 0 -1 0 278.837)"><stop offset=".372" stop-color="#020202" stop-opacity="0"/><stop offset="1" stop-opacity=".5"/></linearGradient><path class="st6" d="M218.8.2L400 .1l-.2 123.8-123.4 123.5H95.1V123.8z"/></g><g id="Layer_2"><path class="st0" d="M218.8 0H400v123.6H218.8z"/><path class="st7" d="M228.3 9.3h162.1v104.8H228.3z"/><circle class="st8" cx="309.1" cy="52.3" r="33.3"/><path class="st9" d="M261.5 99.1h39.8v5.5h-39.8zm55.4 0h39.8v5.5h-39.8z"/><path class="st0" d="M320.7 39.1L304.9 55l-7.4-7.4-5.3 5.3 12.7 12.7L326 44.4l-5.3-5.3z"/></g></svg>