<svg version="1.2" baseProfile="tiny" xmlns="http://www.w3.org/2000/svg" viewBox="0 0 400 187.5" overflow="scroll"><path fill="#E8863D" d="M247.5 141.1l81.7-57.7C308.7 56 279.7 35.1 246 24.5L214.8 118c13.2 4.1 24.7 12.3 32.7 23.1z"/><path fill="#E5DA1A" d="M194.5 114.8c7.1 0 13.9 1.1 20.3 3.1L246 24.5c-16.2-5.1-33.5-7.9-51.5-7.9s-35.3 2.8-51.5 7.9l31.2 93.5c6.4-2.1 13.2-3.2 20.3-3.2z"/><path fill="#95C11F" d="M174.2 117.9L143 24.5C109.3 35.1 80.2 56 59.8 83.4l81.7 57.7c8-10.8 19.4-19 32.7-23.2z"/><path fill="#C63038" d="M260 178.6h101c0-35.6-11.8-68.5-31.8-95.2l-81.7 57.7c7.9 10.5 12.5 23.5 12.5 37.5z"/><path fill="#3AAA35" d="M141.5 141.1L59.8 83.4C39.8 110.1 28 143 28 178.6h101c0-14 4.6-27 12.5-37.5z"/><path fill="#575756" d="M188.1 184.3c-8.2-5.7-24.5-41.2-24.5-41.2s36.9 5.9 45.1 11.6 10.2 16.9 4.5 25.1c-5.7 8.2-16.9 10.2-25.1 4.5z"/><ellipse transform="rotate(-18.232 198.452 169.52)" fill="#FFF" cx="198.4" cy="169.5" rx="6" ry="6"/><path d="M138.3 11.1v2.3H136v3.2h-2.9v-3.2H126v-2.2l7.7-11h2.4v10.9h2.2zm-9.5 0h4.3V4.8l-4.3 6.3zm10.6 4.6l.6-1.4c.9.6 1.9 1 3 1 .5 0 .9-.1 1.1-.2s.4-.4.4-.7c0-.2-.1-.4-.3-.6-.2-.1-.5-.3-.9-.4l-1.3-.3c-1.5-.3-2.2-1.1-2.2-2.3 0-.5.1-.9.4-1.3.3-.4.7-.7 1.2-.9s1.1-.3 1.7-.3c.6 0 1.1.1 1.7.3.5.2 1 .4 1.4.8l-.6 1.4c-.8-.6-1.6-.9-2.5-.9-.5 0-.8.1-1.1.3-.3.2-.4.4-.4.7 0 .2.1.4.2.6s.4.3.8.4l1.4.1c.8.2 1.4.5 1.8.8.4.4.6.9.6 1.5 0 .7-.3 1.3-.9 1.8-.6.4-1.4.7-2.4.7-1.6-.1-2.8-.4-3.7-1.1zM47.7 77.2v2.4h-11v-2.2l5.6-6c.7-.7 1.1-1.4 1.4-2s.5-1.2.5-1.8c0-.8-.2-1.3-.7-1.7s-1.1-.6-1.9-.6c-1.4 0-2.9.6-4.4 1.7l-1-2.2c.6-.6 1.5-1 2.5-1.4 1-.3 2-.5 3.1-.5 1.6 0 2.9.4 3.9 1.2 1 .8 1.4 1.9 1.4 3.3 0 .9-.2 1.8-.6 2.6s-1.1 1.8-2 2.8l-4 4.3h7.2zm1.8 1.5l.6-1.4c.9.6 1.9 1 3 1 .5 0 .9-.1 1.1-.2s.4-.4.4-.7c0-.2-.1-.4-.3-.6-.2-.1-.5-.3-.9-.4l-1.3-.3c-1.5-.3-2.2-1.1-2.2-2.3 0-.5.1-.9.4-1.3s.7-.7 1.2-.9 1.1-.3 1.7-.3c.6 0 1.1.1 1.7.3.5.2 1 .4 1.4.8l-.6 1.4c-.8-.6-1.6-.9-2.5-.9-.5 0-.8.1-1.1.3-.3.2-.4.4-.4.7 0 .2.1.4.2.6s.4.3.8.4l1.3.1c.8.2 1.4.5 1.8.8.4.4.6.9.6 1.5 0 .7-.3 1.3-.9 1.8-.6.4-1.4.7-2.4.7-1.6-.1-2.8-.4-3.6-1.1zm-48 97.9c-1-1.4-1.5-3.5-1.5-6.3 0-2.7.5-4.8 1.5-6.2 1-1.4 2.5-2.1 4.5-2.1s3.4.7 4.5 2.1c1 1.4 1.5 3.5 1.5 6.2s-.5 4.8-1.5 6.3c-1 1.4-2.5 2.2-4.5 2.2s-3.5-.7-4.5-2.2zm6.8-1.6c.5-1 .7-2.5.7-4.6 0-2.1-.2-3.6-.7-4.6S7 164.4 6 164.4s-1.8.5-2.3 1.4-.7 2.5-.7 4.6c0 2.1.2 3.7.7 4.6s1.3 1.5 2.3 1.5 1.8-.5 2.3-1.5zm5.1 2.7l.6-1.4c.9.6 1.9 1 3 1 .5 0 .9-.1 1.1-.2s.4-.4.4-.7c0-.2-.1-.4-.3-.6-.2-.1-.5-.3-.9-.4l-1.3-.3c-1.5-.3-2.2-1.1-2.2-2.3 0-.5.1-.9.4-1.3s.7-.7 1.2-.9 1.1-.3 1.7-.3c.6 0 1.1.1 1.7.3.5.2 1 .4 1.4.8l-.6 1.4c-.8-.6-1.6-.9-2.5-.9-.5 0-.8.1-1.1.3-.3.2-.4.4-.4.7 0 .2.1.4.2.6s.4.3.8.4l1.4.1c.8.2 1.4.5 1.8.8.4.4.6.9.6 1.5 0 .7-.3 1.3-.9 1.8-.6.4-1.4.7-2.4.7-1.6-.1-2.8-.4-3.7-1.1zm239.2-171c.8.4 1.4 1.1 1.8 1.9.4.8.6 1.7.6 2.7 0 1-.2 2-.7 2.8-.5.8-1.1 1.5-2 1.9-.8.5-1.8.7-2.8.7-2.1 0-3.7-.7-4.8-2.1-1.1-1.4-1.7-3.4-1.7-6 0-1.8.3-3.4.8-4.7.5-1.3 1.3-2.3 2.3-3 1-.7 2.2-1 3.6-1 1 0 1.9.2 2.9.5s1.7.8 2.4 1.4L254 4c-1.4-1.1-2.8-1.7-4.2-1.7-1.2 0-2.1.5-2.8 1.5s-1 2.5-1 4.4c.4-.7.9-1.2 1.6-1.6s1.5-.6 2.4-.6c1 .1 1.8.3 2.6.7zm-1.2 6.9c.5-.6.8-1.3.8-2.2s-.3-1.6-.8-2.2c-.5-.5-1.2-.8-2.1-.8s-1.6.3-2.1.8c-.5.6-.8 1.3-.8 2.2s.3 1.6.8 2.2c.5.6 1.2.8 2.1.8.9 0 1.6-.2 2.1-.8zm5 2.1l.6-1.4c.9.6 1.9 1 3 1 .5 0 .8-.1 1.1-.2s.4-.4.4-.7c0-.2-.1-.4-.3-.6-.2-.1-.5-.3-.9-.4l-1.3-.3c-1.5-.3-2.2-1.1-2.2-2.3 0-.5.1-.9.4-1.3.3-.4.7-.7 1.2-.9.5-.2 1.1-.3 1.7-.3.6 0 1.1.1 1.7.3.5.2 1 .4 1.4.8l-.6 1.4c-.8-.6-1.6-.9-2.5-.9-.5 0-.8.1-1.1.3-.3.2-.4.4-.4.7 0 .2.1.4.2.6.2.1.4.3.8.4l1.4.1c.8.2 1.4.5 1.8.8.4.4.6.9.6 1.5 0 .7-.3 1.3-.9 1.8-.6.4-1.4.7-2.4.7-1.6-.1-2.8-.4-3.7-1.1zm87.8 56.9c.6.7.9 1.6.9 2.6 0 .9-.3 1.8-.8 2.4-.5.7-1.2 1.2-2.2 1.6s-2 .6-3.2.6-2.3-.2-3.2-.6-1.6-.9-2.2-1.6c-.5-.7-.8-1.5-.8-2.4 0-1 .3-1.8.9-2.6s1.4-1.2 2.5-1.4c-.9-.3-1.6-.8-2.2-1.4-.5-.7-.8-1.4-.8-2.3 0-.9.2-1.7.7-2.3.5-.7 1.2-1.2 2-1.5.9-.4 1.9-.5 3-.5s2.1.2 3 .5c.9.4 1.5.9 2 1.5.5.7.7 1.4.7 2.3s-.3 1.7-.8 2.3c-.5.7-1.3 1.1-2.2 1.4 1.3.2 2.1.7 2.7 1.4zm-2.8 4.2c.6-.4.9-1 .9-1.8s-.3-1.4-.9-1.8c-.6-.5-1.4-.8-2.4-.9-1 .1-1.8.4-2.4.9-.6.5-.9 1.1-.9 1.8 0 .8.3 1.4.9 1.8.6.4 1.4.6 2.4.6s1.8-.2 2.4-.6zm-4.6-10.9c-.5.4-.8 1-.8 1.8 0 .7.3 1.3.8 1.8s1.2.7 2.1.9c.9-.1 1.6-.4 2.1-.9s.8-1 .8-1.8-.3-1.4-.8-1.8-1.2-.6-2.1-.6-1.5.2-2.1.6zm9.6 12.8l.6-1.4c.9.6 1.9 1 3 1 .5 0 .8-.1 1.1-.2s.4-.4.4-.7c0-.2-.1-.4-.3-.6-.2-.1-.5-.3-.9-.4l-1.3-.3c-1.5-.3-2.2-1.1-2.2-2.3 0-.5.1-.9.4-1.3s.7-.7 1.2-.9c.5-.2 1.1-.3 1.7-.3.6 0 1.1.1 1.7.3.5.2 1 .4 1.4.8l-.6 1.4c-.8-.6-1.6-.9-2.5-.9-.5 0-.8.1-1.1.3-.3.2-.4.4-.4.7 0 .2.1.4.2.6.2.1.4.3.8.4l1.4.1c.8.2 1.4.5 1.8.8.4.4.6.9.6 1.5 0 .7-.3 1.3-.9 1.8-.6.4-1.4.7-2.4.7-1.6-.1-2.8-.4-3.7-1.1zm27.7 97.5h3.6v2.4h-10.1v-2.4h3.6v-10.6l-3.3 2V165l4.6-2.8h1.7v14zm7.2.4c-1-1.4-1.5-3.5-1.5-6.3 0-2.7.5-4.8 1.5-6.2s2.5-2.1 4.5-2.1 3.4.7 4.5 2.1c1 1.4 1.5 3.5 1.5 6.2s-.5 4.8-1.5 6.3c-1 1.4-2.5 2.2-4.5 2.2s-3.5-.7-4.5-2.2zm6.7-1.6c.5-1 .7-2.5.7-4.6 0-2.1-.2-3.6-.7-4.6-.5-1-1.3-1.4-2.3-1.4-1.1 0-1.8.5-2.3 1.4-.5 1-.7 2.5-.7 4.6 0 2.1.2 3.7.7 4.6.5 1 1.3 1.5 2.3 1.5 1.1 0 1.8-.5 2.3-1.5zm5.2 2.7l.6-1.4c.9.6 1.9 1 3 1 .5 0 .9-.1 1.1-.2.3-.2.4-.4.4-.7 0-.2-.1-.4-.3-.6s-.5-.3-.9-.4l-1.3-.3c-1.5-.3-2.2-1.1-2.2-2.3 0-.5.1-.9.4-1.3s.7-.7 1.2-.9 1.1-.3 1.7-.3c.6 0 1.1.1 1.7.3.5.2 1 .4 1.4.8l-.6 1.4c-.8-.6-1.6-.9-2.5-.9-.5 0-.8.1-1.1.3-.3.2-.4.4-.4.7 0 .2.1.4.2.6s.4.3.8.4l1.4.3c.8.2 1.4.5 1.8.8.4.4.6.9.6 1.5 0 .7-.3 1.3-.9 1.8-.6.4-1.4.7-2.4.7-1.7-.3-2.9-.6-3.7-1.3z" fill="#575756"/></svg>